<?xml version="1.0" encoding="UTF-8"?>
<svg version="1.1" xmlns="http://www.w3.org/2000/svg" width="200" height="200">
<path d="M0 0 C66 0 132 0 200 0 C200 66 200 132 200 200 C134 200 68 200 0 200 C0 134 0 68 0 0 Z " fill="#FCFCFC" transform="translate(0,0)"/>
<path d="M0 0 C3 1.875 3 1.875 5 4 C5 4.66 5 5.32 5 6 C6.0725 6.061875 7.145 6.12375 8.25 6.1875 C12 7 12 7 14.375 9.0625 C16.46413833 12.83901929 16.6428975 15.71476996 17 20 C17.33 20.33 17.66 20.66 18 21 C17.84446201 25.12175661 17.60626274 27.32445009 14.8125 30.4375 C11.50745856 32.27363413 9.7271242 32.47580309 6 32 C3.625 31 3.625 31 2 30 C2 31.98 2 33.96 2 36 C7.61 38.31 13.22 40.62 19 43 C19 44.65 19 46.3 19 48 C19.2784375 49.3303125 19.2784375 49.3303125 19.5625 50.6875 C20 53 20 53 19 55 C19.66 55 20.32 55 21 55 C21.00390625 57.203125 21.00390625 57.203125 20 60 C17.52351426 61.98493966 14.76842338 63.33572877 11.9375 64.75 C11.19822266 65.14832031 10.45894531 65.54664062 9.69726562 65.95703125 C4.11783658 68.83705149 -1.12934147 71.21552608 -7.37426758 69.25439453 C-9.9395935 68.16857153 -12.40001211 66.96534701 -14.875 65.6875 C-15.72835937 65.27048828 -16.58171875 64.85347656 -17.4609375 64.42382812 C-23.64250147 61.35749853 -23.64250147 61.35749853 -26 59 C-25.64644564 56.73725212 -25.02455574 55.04911148 -24 53 C-24.66 53 -25.32 53 -26 53 C-26 51.68 -26 50.36 -26 49 C-25.01 48.505 -25.01 48.505 -24 48 C-24 46.35 -24 44.7 -24 43 C-21.7536764 41.99095625 -19.50356063 40.9926398 -17.25 40 C-16.61578125 39.71382812 -15.9815625 39.42765625 -15.328125 39.1328125 C-11.91582896 37.63993298 -9.79218083 37 -6 37 C-6.77030122 33.51190809 -6.77030122 33.51190809 -8 30 C-8.99 29.67 -9.98 29.34 -11 29 C-11.66 29.33 -12.32 29.66 -13 30 C-17.35192338 30.49267057 -19.29982008 30.51752429 -22.875 27.875 C-25.22685022 24.69308499 -26 22.94531634 -26 19 C-24.75 17.0625 -24.75 17.0625 -23 15 C-22.505 13.80375 -22.01 12.6075 -21.5 11.375 C-20 8 -20 8 -17 6 C-15.68 6 -14.36 6 -13 6 C-12.731875 5.38125 -12.46375 4.7625 -12.1875 4.125 C-9.48361351 -0.71353371 -4.99611022 -0.81648494 0 0 Z " fill="#344C4A" transform="translate(101,56)"/>
<path d="M0 0 C5.3588707 3.18055112 9.30308522 7.30612377 11.859375 13.02734375 C13.36988219 19.75596669 12.52965018 24.9957255 9.546875 31.08984375 C6.79301529 35.41733758 3.49640902 38.57748613 -1.453125 40.08984375 C-9.59167682 40.96944706 -15.84707579 41.36903692 -22.453125 36.08984375 C-24.31640625 34.2734375 -24.31640625 34.2734375 -25.765625 32.52734375 C-26.25675781 31.94855469 -26.74789062 31.36976562 -27.25390625 30.7734375 C-30.81498359 25.77400971 -29.83452787 18.91883101 -29.453125 13.08984375 C-27.56748687 6.98924981 -22.91371736 3.25179164 -17.62109375 -0.0546875 C-12.29419645 -2.15665238 -5.33277439 -1.9785612 0 0 Z " fill="#184946" transform="translate(108.453125,12.91015625)"/>
<path d="M0 0 C0.28571429 7.42857143 0.28571429 7.42857143 -2 11 C-1.443125 11.20625 -0.88625 11.4125 -0.3125 11.625 C3.7748058 14.05528993 6.50461882 17.51385646 8 22 C8.56382621 28.54038402 7.4841811 33.382428 4 39 C0.31719884 43.15702487 -4.11913793 45.59090897 -9.61328125 46.37109375 C-16.367058 46.53725034 -20.91417105 45.60603377 -26 41 C-31.21873168 34.30931836 -31.88352234 28.28828099 -31 20 C-29.24673633 14.52552365 -26.11304938 11.7390143 -21.125 9.0625 C-17.92660461 7.62036636 -15.65370351 6.95531658 -12.125 6.5 C-8.79770573 6.29753288 -8.79770573 6.29753288 -6.6875 3.5 C-6.130625 2.675 -5.57375 1.85 -5 1 C-3 0 -3 0 0 0 Z " fill="#215249" transform="translate(164,53)"/>
<path d="M0 0 C5.82880384 3.18934549 10.09333317 6.40157361 12.3125 12.8125 C13.11130009 18.78131175 12.51080644 24.62577278 9.3125 29.8125 C5.31067025 34.12280412 1.70178754 37.46101833 -4.32421875 38.0859375 C-10.42447494 38.28901901 -15.00397922 38.14512096 -19.99609375 34.4140625 C-24.75197577 29.91080239 -26.96945361 25.8731591 -27.1875 19.25 C-26.79697329 12.17170332 -24.95655376 7.72226573 -19.6875 2.9375 C-13.69950466 -2.12054152 -7.31331799 -2.3551363 0 0 Z " fill="#1F5656" transform="translate(53.6875,60.1875)"/>
<path d="M0 0 C2 3 2 3 2 5 C2.61875 5.12375 3.2375 5.2475 3.875 5.375 C6 6 6 6 8 8 C7.34 8.66 6.68 9.32 6 10 C5.3574765 12.06874034 5.3574765 12.06874034 5 14 C5.66 14 6.32 14 7 14 C7 14.66 7 15.32 7 16 C5.35 16.33 3.7 16.66 2 17 C2.45375 17.99 2.9075 18.98 3.375 20 C4.18738243 22.72092472 4.16631942 23.67022874 2.8671875 26.24609375 C1.33947076 28.31626064 -0.13672866 30.22435776 -2 32 C-2.66 32 -3.32 32 -4 32 C-4.66 31.34 -5.32 30.68 -6 30 C-10.46042427 26.32809401 -14.35878997 24.26639409 -20 23 C-19.6390625 23.68707031 -19.278125 24.37414062 -18.90625 25.08203125 C-18.21015625 26.43361328 -18.21015625 26.43361328 -17.5 27.8125 C-17.0359375 28.70582031 -16.571875 29.59914063 -16.09375 30.51953125 C-15 33 -15 33 -15 36 C-19.32960471 32.01220619 -21.59957879 29.05584609 -22.37109375 23.16796875 C-22.50307659 17.24426822 -22.33115375 12.57089148 -18.75 7.6875 C-13.60662646 2.72781837 -7.01516531 0.45751078 0 0 Z " fill="#2C6569" transform="translate(155,59)"/>
<path d="M0 0 C0.99 0 1.98 0 3 0 C3.66 2.31 4.32 4.62 5 7 C5 6.67 5 6.34 5 6 C5.32380126 4.66431979 5.65657551 3.33076989 6 2 C7.9375 1.4375 7.9375 1.4375 10 1 C11 2 11 2 11.0625 4.5625 C11.041875 5.366875 11.02125 6.17125 11 7 C11.99 7 12.98 7 14 7 C14.33 5.35 14.66 3.7 15 2 C16.65 2 18.3 2 20 2 C20.33 3.65 20.66 5.3 21 7 C21.66 7 22.32 7 23 7 C23.33 5.35 23.66 3.7 24 2 C25.75 1.3125 25.75 1.3125 28 1 C30.25 2.4375 30.25 2.4375 32 4 C32 2.68 32 1.36 32 0 C32.66 0 33.32 0 34 0 C34.125 3.375 34.125 3.375 34 7 C33.34 7.66 32.68 8.32 32 9 C31.69940057 11.36509361 31.50484988 13.74441881 31.375 16.125 C31.30023438 17.40632813 31.22546875 18.68765625 31.1484375 20.0078125 C31.09945312 20.99523437 31.05046875 21.98265625 31 23 C29.68 22.67 28.36 22.34 27 22 C26.67 22.66 26.34 23.32 26 24 C25.01 23.67 24.02 23.34 23 23 C22.67 19.04 22.34 15.08 22 11 C21.67 15.29 21.34 19.58 21 24 C18.69 24 16.38 24 14 24 C14 19.38 14 14.76 14 10 C13.34 10 12.68 10 12 10 C12.01160156 10.92683594 12.02320312 11.85367188 12.03515625 12.80859375 C12.04417969 14.00613281 12.05320312 15.20367187 12.0625 16.4375 C12.07410156 17.63246094 12.08570312 18.82742187 12.09765625 20.05859375 C12 23 12 23 11 24 C8 24.125 8 24.125 5 24 C2.63438268 21.63438268 3.60268704 15.6208683 3.4765625 12.41796875 C2.98095373 8.86339762 2.26747271 7.65240176 0 5 C-0.1875 2.25 -0.1875 2.25 0 0 Z " fill="#094552" transform="translate(82,129)"/>
<path d="M0 0 C6.82486434 6.62548628 6.82486434 6.62548628 7.16796875 11.27734375 C7.17763672 12.59412109 7.17763672 12.59412109 7.1875 13.9375 C7.20167969 14.81277344 7.21585938 15.68804687 7.23046875 16.58984375 C7 19 7 19 5 22 C3.02 20.35 1.04 18.7 -1 17 C-0.34 16.67 0.32 16.34 1 16 C0.1395861 11.66770285 0.1395861 11.66770285 -2 8 C-4.2773501 10.81509993 -4.2773501 10.81509993 -4 14 C-5 15 -5 15 -7.5625 15.0625 C-8.366875 15.041875 -9.17125 15.02125 -10 15 C-9.67 13.68 -9.34 12.36 -9 11 C-8.34 11.33 -7.68 11.66 -7 12 C-7 11.34 -7 10.68 -7 10 C-7.66 10 -8.32 10 -9 10 C-9.33 8.02 -9.66 6.04 -10 4 C-11.56249809 5.31201173 -11.56249809 5.31201173 -13 7 C-13 7.99 -13 8.98 -13 10 C-12.34 10.33 -11.68 10.66 -11 11 C-11 12.32 -11 13.64 -11 15 C-13.64 15 -16.28 15 -19 15 C-18.34 14.67 -17.68 14.34 -17 14 C-17.66 11.03 -18.32 8.06 -19 5 C-19.66 5 -20.32 5 -21 5 C-21.66 6.65 -22.32 8.3 -23 10 C-22.34 10.33 -21.68 10.66 -21 11 C-21 13 -21 15 -21 17 C-23.31 17.99 -25.62 18.98 -28 20 C-28.56039127 13.22549224 -28.50384663 8.21770763 -24.4296875 2.58984375 C-17.92131416 -4.64760967 -8.06761314 -4.54720014 0 0 Z " fill="#84CAD9" transform="translate(57,64)"/>
<path d="M0 0 C3.19448727 0.0696979 3.95878065 0.25033549 6.625 2.25 C8.125 4.375 8.125 4.375 8.125 6.375 C9.0325 6.271875 9.94 6.16875 10.875 6.0625 C14.125 6.375 14.125 6.375 16.5 8.5 C18.3613033 11.79307506 18.29002337 13.66197414 18.125 17.375 C18.785 18.035 19.445 18.695 20.125 19.375 C19.9375 22.875 19.9375 22.875 19.125 26.375 C15.2746895 28.94187367 13.53930237 28.20788724 9.125 27.375 C8 23.625 8 23.625 9.125 21.375 C7.145 22.365 7.145 22.365 5.125 23.375 C5.29 22.611875 5.455 21.84875 5.625 21.0625 C6.21645396 18.33903764 6.21645396 18.33903764 6.125 15.375 C5.135 15.87 5.135 15.87 4.125 16.375 C4.125 14.725 4.125 13.075 4.125 11.375 C3.465 11.375 2.805 11.375 2.125 11.375 C2.06441406 12.07367188 2.00382812 12.77234375 1.94140625 13.4921875 C1.85761719 14.40226562 1.77382812 15.31234375 1.6875 16.25 C1.60628906 17.15492187 1.52507812 18.05984375 1.44140625 18.9921875 C1.125 21.375 1.125 21.375 0.125 23.375 C-0.535 23.375 -1.195 23.375 -1.875 23.375 C-1.71 22.694375 -1.545 22.01375 -1.375 21.3125 C-0.78009199 17.81741543 -0.49570037 14.91512985 -0.875 11.375 C-3.31250025 8.68732422 -3.31250025 8.68732422 -5.875 6.375 C-5.875 0.99085974 -5.32627059 0.51544554 0 0 Z " fill="#E09D33" transform="translate(96.875,57.625)"/>
<path d="M0 0 C4.33768176 3.07612491 7.23228408 5.80196303 8.4375 11.125 C8.52 12.011875 8.6025 12.89875 8.6875 13.8125 C7.0375 13.8125 5.3875 13.8125 3.6875 13.8125 C3.0275 10.5125 2.3675 7.2125 1.6875 3.8125 C-3.14986317 4.19824956 -3.14986317 4.19824956 -4.5625 6.5 C-5.45399476 9.2487755 -5.92247038 11.95228281 -6.3125 14.8125 C-14.2712799 15.35720737 -20.13197541 14.30151845 -27.3125 10.8125 C-26.26885026 5.89690973 -23.94328713 2.95405099 -19.8125 0.0625 C-13.43309385 -3.12720308 -6.23743434 -3.71914309 0 0 Z " fill="#85CBD8" transform="translate(109.3125,16.1875)"/>
<path d="M0 0 C2.13893755 1.18604594 4.13368587 2.41630088 6.09765625 3.87109375 C6.09765625 5.19109375 6.09765625 6.51109375 6.09765625 7.87109375 C0.29475553 13.41608777 -4.00935512 14.34190639 -11.8125 14.28515625 C-16.64845087 13.63710215 -19.68896558 11.46301124 -22.90234375 7.87109375 C-24.40234375 4.99609375 -24.40234375 4.99609375 -24.90234375 2.87109375 C-17.35936437 -1.95641305 -8.53212624 -3.31868706 0 0 Z " fill="#63A152" transform="translate(54.90234375,82.12890625)"/>
<path d="M0 0 C5.3588707 3.18055112 9.30308522 7.30612377 11.859375 13.02734375 C13.33898033 19.61831293 12.72125009 25.16269026 9.546875 31.08984375 C7.99525233 33.00166454 6.42031286 34.46957317 4.546875 36.08984375 C4.9630633 33.17652565 5.46215616 31.22398191 7.046875 28.71484375 C8.87525176 25.51518441 9.1901738 22.72819595 9.546875 19.08984375 C6.576875 19.74984375 3.606875 20.40984375 0.546875 21.08984375 C0.216875 22.40984375 -0.113125 23.72984375 -0.453125 25.08984375 C-1.61376104 20.83417828 -1.21485892 17.40633595 -0.453125 13.08984375 C-0.123125 13.08984375 0.206875 13.08984375 0.546875 13.08984375 C0.546875 15.06984375 0.546875 17.04984375 0.546875 19.08984375 C1.206875 19.08984375 1.866875 19.08984375 2.546875 19.08984375 C1.886875 15.78984375 1.226875 12.48984375 0.546875 9.08984375 C-2.97028803 12.60700678 -2.99988663 14.28551708 -3.453125 19.08984375 C-4.5875 19.35796875 -5.721875 19.62609375 -6.890625 19.90234375 C-8.06625 20.29421875 -9.241875 20.68609375 -10.453125 21.08984375 C-10.783125 22.07984375 -11.113125 23.06984375 -11.453125 24.08984375 C-13.08944392 25.13876613 -14.75798363 26.13891078 -16.453125 27.08984375 C-17.113125 27.74984375 -17.773125 28.40984375 -18.453125 29.08984375 C-18.140625 27.21484375 -18.140625 27.21484375 -17.453125 25.08984375 C-16.463125 24.42984375 -15.473125 23.76984375 -14.453125 23.08984375 C-14.453125 22.42984375 -14.453125 21.76984375 -14.453125 21.08984375 C-18.743125 19.43984375 -23.033125 17.78984375 -27.453125 16.08984375 C-27.453125 19.05984375 -27.453125 22.02984375 -27.453125 25.08984375 C-28.113125 25.08984375 -28.773125 25.08984375 -29.453125 25.08984375 C-30.02793281 11.93313175 -30.02793281 11.93313175 -26.453125 7.08984375 C-19.02392713 -0.33935412 -10.53453409 -3.90851345 0 0 Z M-24.453125 9.08984375 C-25.113125 9.74984375 -25.773125 10.40984375 -26.453125 11.08984375 C-26.43139632 13.15712387 -26.43139632 13.15712387 -25.453125 15.08984375 C-19.50509133 18.79699032 -12.19099497 18.42988579 -5.453125 18.08984375 C-5.14375 16.81109375 -4.834375 15.53234375 -4.515625 14.21484375 C-3.97707256 11.988827 -3.479425 10.14244376 -2.453125 8.08984375 C-0.803125 7.75984375 0.846875 7.42984375 2.546875 7.08984375 C3.206875 10.38984375 3.866875 13.68984375 4.546875 17.08984375 C6.196875 17.08984375 7.846875 17.08984375 9.546875 17.08984375 C9.25805566 11.16904732 6.7368187 7.98472099 2.546875 4.08984375 C-6.85310619 -2.38569884 -17.26521421 1.08045744 -24.453125 9.08984375 Z " fill="#1D5355" transform="translate(108.453125,12.91015625)"/>
<path d="M0 0 C3 1.875 3 1.875 5 4 C5 4.66 5 5.32 5 6 C6.0725 6.061875 7.145 6.12375 8.25 6.1875 C12 7 12 7 14.375 9.0625 C16.46413833 12.83901929 16.6428975 15.71476996 17 20 C17.33 20.33 17.66 20.66 18 21 C17.84446201 25.12175661 17.60626274 27.32445009 14.8125 30.4375 C11.48847854 32.28417859 9.75068991 32.46883624 6 32 C3.125 31 3.125 31 1 30 C1 28.68 1 27.36 1 26 C1.66 26 2.32 26 3 26 C3 26.66 3 27.32 3 28 C4.45736087 28.19491452 5.91594593 28.38069358 7.375 28.5625 C8.18710938 28.66691406 8.99921875 28.77132812 9.8359375 28.87890625 C12.04899186 29.18237328 12.04899186 29.18237328 14 28 C15.02024164 23.49393277 15.3106521 20.97945639 13 17 C12.7525 15.453125 12.7525 15.453125 12.5 13.875 C12.26313679 10.87947452 12.26313679 10.87947452 10 9 C9.05125 8.896875 8.1025 8.79375 7.125 8.6875 C4 8 4 8 2.125 5.4375 C0.30716404 2.89447898 0.30716404 2.89447898 -1.8828125 2.49609375 C-4.09244907 2.36971232 -5.85816798 2.4344851 -8 3 C-10.12802546 5.30566683 -10.12802546 5.30566683 -12 8 C-13.216875 8.495 -14.43375 8.99 -15.6875 9.5 C-16.780625 9.995 -17.87375 10.49 -19 11 C-19.82704005 13.46823091 -19.82704005 13.46823091 -20 16 C-20.53625 16.474375 -21.0725 16.94875 -21.625 17.4375 C-23.34434366 19.03643649 -23.34434366 19.03643649 -22.9375 22.0625 C-22.29132201 25.03586085 -22.29132201 25.03586085 -20.25 26.375 C-17.73711854 27.07302263 -15.59626911 27.14423717 -13 27 C-12.77390663 24.87635519 -12.77390663 24.87635519 -14.5 23.375 C-15.2425 22.694375 -15.2425 22.694375 -16 22 C-15.01 22 -14.02 22 -13 22 C-13 21.01 -13 20.02 -13 19 C-8.69406867 20.48480391 -7.92370078 23.06895927 -6 27 C-5.01 27.33 -4.02 27.66 -3 28 C-2.67 26.02 -2.34 24.04 -2 22 C-1.67 22 -1.34 22 -1 22 C-0.67 28.93 -0.34 35.86 0 43 C-1.65 43 -3.3 43 -5 43 C-4.97679688 42.22914062 -4.95359375 41.45828125 -4.9296875 40.6640625 C-4.91164063 39.66117188 -4.89359375 38.65828125 -4.875 37.625 C-4.85179688 36.62726563 -4.82859375 35.62953125 -4.8046875 34.6015625 C-4.72783152 31.83737827 -4.72783152 31.83737827 -7 30 C-8.97080157 29.25723969 -8.97080157 29.25723969 -11 29 C-11.66 29.33 -12.32 29.66 -13 30 C-17.35192338 30.49267057 -19.29982008 30.51752429 -22.875 27.875 C-25.22685022 24.69308499 -26 22.94531634 -26 19 C-24.75 17.0625 -24.75 17.0625 -23 15 C-22.505 13.80375 -22.01 12.6075 -21.5 11.375 C-20 8 -20 8 -17 6 C-15.68 6 -14.36 6 -13 6 C-12.731875 5.38125 -12.46375 4.7625 -12.1875 4.125 C-9.48361351 -0.71353371 -4.99611022 -0.81648494 0 0 Z " fill="#185242" transform="translate(101,56)"/>
<path d="M0 0 C5.1103144 1.1454153 9.37234081 2.45478745 14 5 C13 8 13 8 12 9 C13.32 8.67 14.64 8.34 16 8 C16.33 6.68 16.66 5.36 17 4 C17.82638376 6.89234315 18 8.88742431 18 12 C23.445 13.98 23.445 13.98 29 16 C29 17.32 29 18.64 29 20 C25.17010894 21.80230168 22.21878192 22.19622241 18 22 C17.34 20.02 16.68 18.04 16 16 C15.34 16 14.68 16 14 16 C14.66 16.66 15.32 17.32 16 18 C16 18.99 16 19.98 16 21 C10.4199657 20.7722435 7.50790641 19.45074419 3.4453125 15.59765625 C-0.73614519 10.97545032 -0.2310121 5.89080854 0 0 Z " fill="#659F4F" transform="translate(81,29)"/>
<path d="M0 0 C0.28875 0.61875 0.5775 1.2375 0.875 1.875 C3.05911259 6.00054601 5.93172795 6.92984747 10.125 8.625 C11.22070312 9.07101563 12.31640625 9.51703125 13.4453125 9.9765625 C14.70988281 10.48316406 14.70988281 10.48316406 16 11 C16 11.66 16 12.32 16 13 C13.50947813 14.21201368 11.01081776 15.39390131 8.5 16.5625 C7.80390625 16.90474609 7.1078125 17.24699219 6.390625 17.59960938 C1.253745 19.95401271 -2.52248538 20.52438954 -8 19 C-11.625 17.58984375 -11.625 17.58984375 -15 15.9375 C-16.134375 15.38964844 -17.26875 14.84179688 -18.4375 14.27734375 C-19.283125 13.85582031 -20.12875 13.43429688 -21 13 C-21 12.34 -21 11.68 -21 11 C-16.05 9.02 -11.1 7.04 -6 5 C-6.66 6.65 -7.32 8.3 -8 10 C-8.66 10 -9.32 10 -10 10 C-10 10.99 -10 11.98 -10 13 C-5.38 13 -0.76 13 4 13 C3.34 11.96875 2.68 10.9375 2 9.875 C0.02717274 6.46423174 -0.38827665 3.9798357 0 0 Z " fill="#6BA64A" transform="translate(101,89)"/>
<path d="M0 0 C2.4375 2.0625 2.4375 2.0625 4 5 C4.12713708 7.93520834 3.68103435 10.08128137 3 13 C2.01 13.495 2.01 13.495 1 14 C-0.32 12.68 -1.64 11.36 -3 10 C-3 10.99 -3 11.98 -3 13 C-3.99 13.495 -3.99 13.495 -5 14 C-4.01 14.66 -3.02 15.32 -2 16 C-2.33 16.99 -2.66 17.98 -3 19 C-10.36831683 18.51683168 -10.36831683 18.51683168 -13.0625 16.3125 C-14.31379472 13.22597301 -13.79498478 11.17993913 -13 8 C-12.01 7.67 -11.02 7.34 -10 7 C-10.0825 6.236875 -10.165 5.47375 -10.25 4.6875 C-10 2 -10 2 -8.375 0.125 C-5.0841101 -1.43384258 -3.43291694 -1.14430565 0 0 Z " fill="#6BA54C" transform="translate(91,65)"/>
<path d="M0 0 C5.84879328 0.25429536 10.18829358 2.36126401 15.3515625 5.0390625 C19.43277254 6.51985552 21.8343116 5.53278917 25.68359375 3.7734375 C26.59238281 3.31195313 27.50117187 2.85046875 28.4375 2.375 C32.6939956 0.36754464 35.36227214 -0.62947195 40 1 C39 4 39 4 37.42114258 5.07495117 C35.22335596 6.12473119 33.02556363 7.17018979 30.8125 8.1875 C30.05646484 8.55552734 29.30042969 8.92355469 28.52148438 9.30273438 C24.22020527 11.31347977 20.81892453 12.78331023 16 12 C12.93875559 10.86026397 10.04281204 9.46385147 7.125 8 C6.34125 7.6184375 5.5575 7.236875 4.75 6.84375 C2.82819911 5.90628615 0.91336968 4.95455414 -1 4 C-1 1 -1 1 0 0 Z " fill="#D29F43" transform="translate(79,105)"/>
<path d="M0 0 C0.28571429 7.42857143 0.28571429 7.42857143 -2 11 C-1.443125 11.20625 -0.88625 11.4125 -0.3125 11.625 C3.0336898 13.61462637 4.85762063 15.75582552 7 19 C6.8125 22.875 6.8125 22.875 6 26 C4.68 25.67 3.36 25.34 2 25 C2.99 25 3.98 25 5 25 C3.90213575 19.59212615 3.90213575 19.59212615 0 16 C-0.66 16 -1.32 16 -2 16 C-1.34 17.98 -0.68 19.96 0 22 C-0.639375 22.268125 -1.27875 22.53625 -1.9375 22.8125 C-4.33131686 23.88667752 -4.33131686 23.88667752 -5 27 C-3.02 26.67 -1.04 26.34 1 26 C1.33 26.66 1.66 27.32 2 28 C1.13375 28.495 0.2675 28.99 -0.625 29.5 C-4.61928258 32.17236525 -7.76512065 35.7442191 -10 40 C-10.21988 42.67001177 -10.21988 42.67001177 -10 45 C-10.99 44.67 -11.98 44.34 -13 44 C-13.73046875 41.93359375 -13.73046875 41.93359375 -14.1875 39.4375 C-14.34605469 38.61121094 -14.50460938 37.78492188 -14.66796875 36.93359375 C-14.77753906 36.29550781 -14.88710937 35.65742187 -15 35 C-14.34 35.33 -13.68 35.66 -13 36 C-13 36.66 -13 37.32 -13 38 C-12.34 38 -11.68 38 -11 38 C-10.731875 37.236875 -10.46375 36.47375 -10.1875 35.6875 C-9 33 -9 33 -7.3125 31.625 C-5.58305217 29.86707422 -5.58305217 29.86707422 -6.3125 26.3125 C-6.6528125 24.6728125 -6.6528125 24.6728125 -7 23 C-5.35 22.67 -3.7 22.34 -2 22 C-2 21.34 -2 20.68 -2 20 C-2.66 20 -3.32 20 -4 20 C-3.835 19.21625 -3.67 18.4325 -3.5 17.625 C-2.9376293 15.11791961 -2.9376293 15.11791961 -3 13 C-4.32 12.34 -5.64 11.68 -7 11 C-7 10.34 -7 9.68 -7 9 C-9.64 9 -12.28 9 -15 9 C-15 8.67 -15 8.34 -15 8 C-12.69 8 -10.38 8 -8 8 C-7.9175 7.236875 -7.835 6.47375 -7.75 5.6875 C-7 3 -7 3 -5.125 1.1875 C-3 0 -3 0 0 0 Z " fill="#215A50" transform="translate(164,53)"/>
<path d="M0 0 C2.97 0 5.94 0 9 0 C7.92598892 2.91517292 7.22189824 4.77810176 5 7 C4.3574765 9.06874034 4.3574765 9.06874034 4 11 C7.37503669 9.8141763 9.64722731 8.72426311 12 6 C12.33 6.99 12.66 7.98 13 9 C13.66 9.33 14.32 9.66 15 10 C15 10.66 15 11.32 15 12 C13.35 12.33 11.7 12.66 10 13 C10.66 15.31 11.32 17.62 12 20 C10.71034824 21.37562854 9.37310707 22.70766393 8 24 C7.34 24 6.68 24 6 24 C6.66 22.02 7.32 20.04 8 18 C5.525 17.01 5.525 17.01 3 16 C3.33 17.32 3.66 18.64 4 20 C3.34 20 2.68 20 2 20 C0 17 0 17 -0.5 13.4375 C-0.65847757 9.9428808 -0.65847757 9.9428808 -3 8 C-4.31747324 7.30251417 -5.64914193 6.63040043 -7 6 C-6.030625 5.38125 -5.06125 4.7625 -4.0625 4.125 C-0.97164638 2.34321154 -0.97164638 2.34321154 0 0 Z " fill="#88CBDB" transform="translate(147,63)"/>
<path d="M0 0 C4.32270243 0.35048939 7.59127948 1.68707016 11.4375 3.5625 C15.96325806 5.64288879 18.96633382 6.97140926 24 6 C27.08672913 4.54865175 30.06874763 2.99645338 33.03515625 1.3125 C36.27879903 -0.12342092 38.4934209 -0.25009777 42 0 C40.62819017 4.11542948 38.57816084 4.59172333 34.85546875 6.51171875 C34.03691406 6.92035156 33.21835938 7.32898438 32.375 7.75 C31.18197266 8.38615234 31.18197266 8.38615234 29.96484375 9.03515625 C24.89210059 11.5923519 21.68103839 12.6009585 16 11 C12.91015625 9.80859375 12.91015625 9.80859375 10.0625 8.4375 C9.10472656 7.98246094 8.14695312 7.52742188 7.16015625 7.05859375 C6.44730469 6.70925781 5.73445313 6.35992187 5 6 C5 5.34 5 4.68 5 4 C3.35 3.67 1.7 3.34 0 3 C0 2.01 0 1.02 0 0 Z " fill="#876644" transform="translate(78,112)"/>
<path d="M0 0 C4.03679435 2.41149325 7.29565259 4.9950265 9.7734375 9.05859375 C10.5234375 12.37109375 10.5234375 12.37109375 10.7734375 15.05859375 C9.1234375 15.05859375 7.4734375 15.05859375 5.7734375 15.05859375 C5.1134375 11.75859375 4.4534375 8.45859375 3.7734375 5.05859375 C2.1234375 5.38859375 0.4734375 5.71859375 -1.2265625 6.05859375 C-2.2165625 9.02859375 -3.2065625 11.99859375 -4.2265625 15.05859375 C-5.8765625 15.05859375 -7.5265625 15.05859375 -9.2265625 15.05859375 C-8.9378125 13.84171875 -8.6490625 12.62484375 -8.3515625 11.37109375 C-7.97234458 9.18510713 -7.97234458 9.18510713 -8.2265625 7.05859375 C-9.98709941 4.87552798 -11.88899105 3.6805821 -14.2265625 2.05859375 C-14.2265625 1.39859375 -14.2265625 0.73859375 -14.2265625 0.05859375 C-9.45849144 -1.53076327 -4.72202224 -1.99650414 0 0 Z " fill="#85CBD7" transform="translate(107.2265625,14.94140625)"/>
<path d="M0 0 C3.19448727 0.0696979 3.95878065 0.25033549 6.625 2.25 C8.125 4.375 8.125 4.375 8.125 6.375 C9.548125 6.2821875 9.548125 6.2821875 11 6.1875 C12.03125 6.249375 13.0625 6.31125 14.125 6.375 C15.115 7.86 15.115 7.86 16.125 9.375 C15.34125 9.354375 14.5575 9.33375 13.75 9.3125 C11.14385039 9.18815937 11.14385039 9.18815937 9.125 10.375 C8.815625 11.014375 8.50625 11.65375 8.1875 12.3125 C7.125 14.375 7.125 14.375 4.125 16.375 C4.125 14.725 4.125 13.075 4.125 11.375 C3.465 11.375 2.805 11.375 2.125 11.375 C2.06441406 12.07367188 2.00382812 12.77234375 1.94140625 13.4921875 C1.85761719 14.40226562 1.77382812 15.31234375 1.6875 16.25 C1.60628906 17.15492187 1.52507812 18.05984375 1.44140625 18.9921875 C1.125 21.375 1.125 21.375 0.125 23.375 C-0.535 23.375 -1.195 23.375 -1.875 23.375 C-1.71 22.694375 -1.545 22.01375 -1.375 21.3125 C-0.78009199 17.81741543 -0.49570037 14.91512985 -0.875 11.375 C-3.31250025 8.68732422 -3.31250025 8.68732422 -5.875 6.375 C-5.875 0.99085974 -5.32627059 0.51544554 0 0 Z " fill="#E08926" transform="translate(96.875,57.625)"/>
<path d="M0 0 C0.66 0 1.32 0 2 0 C2.125 3.375 2.125 3.375 2 7 C1.34 7.66 0.68 8.32 0 9 C-0.30059943 11.36509361 -0.49515012 13.74441881 -0.625 16.125 C-0.69976562 17.40632813 -0.77453125 18.68765625 -0.8515625 20.0078125 C-0.90054688 20.99523437 -0.94953125 21.98265625 -1 23 C-2.32 22.67 -3.64 22.34 -5 22 C-5.33 22.66 -5.66 23.32 -6 24 C-6.99 23.67 -7.98 23.34 -9 23 C-9.33 19.04 -9.66 15.08 -10 11 C-10.33 15.29 -10.66 19.58 -11 24 C-11.99 24 -12.98 24 -14 24 C-14 23.34 -14 22.68 -14 22 C-13.34 22 -12.68 22 -12 22 C-12.28187936 20.20676747 -12.5758281 18.41542874 -12.875 16.625 C-13.03742188 15.62726563 -13.19984375 14.62953125 -13.3671875 13.6015625 C-13.7958802 10.8574885 -13.7958802 10.8574885 -16 9 C-14.80375 8.855625 -13.6075 8.71125 -12.375 8.5625 C-8.8994842 8.12960657 -5.45049966 7.60383744 -2 7 C-1.34 4.69 -0.68 2.38 0 0 Z " fill="#0C4551" transform="translate(114,129)"/>
<path d="M0 0 C0.49940808 6.11774896 -0.75099398 9.02495953 -4 14 C-4.556875 13.71125 -5.11375 13.4225 -5.6875 13.125 C-9.74012815 11.15345117 -13.548071 9.76318783 -18 9 C-17.125 3.125 -17.125 3.125 -16 2 C-14.88625 2.020625 -13.7725 2.04125 -12.625 2.0625 C-7.84429208 1.980074 -5.0485147 -0.22437843 0 0 Z " fill="#69A74D" transform="translate(118,32)"/>
<path d="M0 0 C3.90047216 0.57784773 6.23265649 2.23265649 9 5 C9.6875 8 9.6875 8 10 11 C10.94978897 13.15028304 10.94978897 13.15028304 12 15 C12.33 15.99 12.66 16.98 13 18 C9.44745737 17.43159318 6.80862246 15.74122801 3.75 13.921875 C1.55330313 12.76468647 -0.54485016 12.29759392 -3 12 C-2.88541307 10.56163249 -2.75790884 9.12429034 -2.625 7.6875 C-2.55539063 6.88699219 -2.48578125 6.08648437 -2.4140625 5.26171875 C-2 3 -2 3 0 0 Z " fill="#89D0DD" transform="translate(138,68)"/>
<path d="M0 0 C1.1446875 0.1546875 1.1446875 0.1546875 2.3125 0.3125 C3.73508812 4.13570557 4.55292276 7.22531305 4.3125 11.3125 C4.9725 11.6425 5.6325 11.9725 6.3125 12.3125 C5.343125 12.56 4.37375 12.8075 3.375 13.0625 C2.364375 13.475 1.35375 13.8875 0.3125 14.3125 C-0.65627057 16.34493548 -0.65627057 16.34493548 -0.6875 18.3125 C-1.84813604 14.05683453 -1.44923392 10.6289922 -0.6875 6.3125 C-0.3575 6.3125 -0.0275 6.3125 0.3125 6.3125 C0.3125 8.2925 0.3125 10.2725 0.3125 12.3125 C0.9725 12.3125 1.6325 12.3125 2.3125 12.3125 C1.6525 9.0125 0.9925 5.7125 0.3125 2.3125 C-3.20466303 5.82966303 -3.23426163 7.50817333 -3.6875 12.3125 C-5.3890625 12.7146875 -5.3890625 12.7146875 -7.125 13.125 C-8.300625 13.516875 -9.47625 13.90875 -10.6875 14.3125 C-11.0175 15.3025 -11.3475 16.2925 -11.6875 17.3125 C-13.32381892 18.36142238 -14.99235863 19.36156703 -16.6875 20.3125 C-17.3475 20.9725 -18.0075 21.6325 -18.6875 22.3125 C-18.375 20.4375 -18.375 20.4375 -17.6875 18.3125 C-16.6975 17.6525 -15.7075 16.9925 -14.6875 16.3125 C-14.6875 15.6525 -14.6875 14.9925 -14.6875 14.3125 C-18.9775 12.6625 -23.2675 11.0125 -27.6875 9.3125 C-27.6875 12.2825 -27.6875 15.2525 -27.6875 18.3125 C-28.3475 18.3125 -29.0075 18.3125 -29.6875 18.3125 C-29.6875 15.0125 -29.6875 11.7125 -29.6875 8.3125 C-26.17483909 8.17199356 -23.28624204 8.10838339 -19.9375 9.25 C-15.26796942 10.7765773 -10.56917702 10.98242219 -5.6875 11.3125 C-5.749375 10.425625 -5.81125 9.53875 -5.875 8.625 C-5.62086945 4.13536022 -4.90907603 0.57082279 0 0 Z " fill="#155144" transform="translate(108.6875,19.6875)"/>
<path d="M0 0 C6.8359375 -0.1953125 6.8359375 -0.1953125 9 0 C11 2 11 2 11.125 4.4375 C11.08375 5.283125 11.0425 6.12875 11 7 C11 10.11227195 11.45627049 12.94152152 12 16 C11.01 16 10.02 16 9 16 C8.7525 15.195625 8.505 14.39125 8.25 13.5625 C7.27761141 10.828919 7.27761141 10.828919 4.875 10.1875 C4.25625 10.125625 3.6375 10.06375 3 10 C3 11.98 3 13.96 3 16 C2.01 16 1.02 16 0 16 C0 10.72 0 5.44 0 0 Z " fill="#1E1E1E" transform="translate(71,163)"/>
<path d="M0 0 C1.71316406 -0.04253906 1.71316406 -0.04253906 3.4609375 -0.0859375 C7.18687462 0.45685334 8.3096501 1.48936687 10.625 4.375 C9.625 7.375 9.625 7.375 7.5 8.5625 C2.54823794 9.96191102 -1.07354738 9.9429066 -5.8125 7.875 C-6.658125 7.38 -7.50375 6.885 -8.375 6.375 C-8.375 -0.17903635 -5.81727878 0.06536268 0 0 Z " fill="#144D34" transform="translate(45.375,83.625)"/>
<path d="M0 0 C3 1.875 3 1.875 5 4 C5 4.66 5 5.32 5 6 C6.0725 6.061875 7.145 6.12375 8.25 6.1875 C12 7 12 7 14.375 9.0625 C16.46413833 12.83901929 16.6428975 15.71476996 17 20 C17.33 20.33 17.66 20.66 18 21 C17.84446201 25.12175661 17.60626274 27.32445009 14.8125 30.4375 C11.48847854 32.28417859 9.75068991 32.46883624 6 32 C3.125 31 3.125 31 1 30 C1 28.68 1 27.36 1 26 C1.66 26 2.32 26 3 26 C3 26.66 3 27.32 3 28 C4.45736087 28.19491452 5.91594593 28.38069358 7.375 28.5625 C8.18710938 28.66691406 8.99921875 28.77132812 9.8359375 28.87890625 C12.04899186 29.18237328 12.04899186 29.18237328 14 28 C15.02024164 23.49393277 15.3106521 20.97945639 13 17 C12.7525 15.453125 12.7525 15.453125 12.5 13.875 C12.26313679 10.87947452 12.26313679 10.87947452 10 9 C9.05125 8.896875 8.1025 8.79375 7.125 8.6875 C4 8 4 8 2.125 5.4375 C0.31048606 2.88644948 0.31048606 2.88644948 -1.8828125 2.53125 C-5.70651141 2.36193492 -7.4430137 2.55441096 -10.5 5 C-10.995 5.66 -11.49 6.32 -12 7 C-12 3 -12 3 -10.5 1.25 C-7.0081587 -0.49592065 -3.78412861 -0.69687913 0 0 Z " fill="#394C40" transform="translate(101,56)"/>
<path d="M0 0 C5.94262183 0.12380462 9.00648777 1.97064042 13.33203125 6.01171875 C15.77143668 8.91958143 16.39349929 11.28518315 17 15 C11.36307241 14.61783542 8.04145306 14.26597823 4 10 C1.7428395 6.75116899 0 4.06637838 0 0 Z " fill="#5C994D" transform="translate(135,82)"/>
<path d="M0 0 C6.46712188 1.16194152 12.09622349 3.1248748 18 6 C17.67 7.98 17.34 9.96 17 12 C15.906875 12.226875 14.81375 12.45375 13.6875 12.6875 C8.99232766 13.82369829 4.89564934 15.87415989 0.61328125 18.07421875 C-4.29383984 19.81261591 -8.05482266 17.67527783 -12.5625 15.5625 C-13.49191406 15.13066406 -14.42132813 14.69882813 -15.37890625 14.25390625 C-17.59841804 13.19211298 -19.80460166 12.11061328 -22 11 C-19.19615302 9.8757845 -18.11675894 9.95652417 -15.23046875 11.03125 C-14.22628906 11.5159375 -13.22210938 12.000625 -12.1875 12.5 C-7.18273985 14.66128363 -4.35438602 15.72105265 1 14 C4.16957583 12.74119045 7.30744044 11.43974093 10.42578125 10.05859375 C13 9 13 9 15 9 C15 8.34 15 7.68 15 7 C14.41992188 6.81824219 13.83984375 6.63648437 13.2421875 6.44921875 C8.60852707 4.9581894 4.30237645 3.31666424 0 1 C0 0.67 0 0.34 0 0 Z " fill="#304D29" transform="translate(102,93)"/>
<path d="M0 0 C0.66 0.33 1.32 0.66 2 1 C2 3.31 2 5.62 2 8 C5.63 9.32 9.26 10.64 13 12 C13 13.32 13 14.64 13 16 C9.17010894 17.80230168 6.21878192 18.19622241 2 18 C1.6596875 16.6078125 1.6596875 16.6078125 1.3125 15.1875 C-0.2088437 11.49280817 -1.46352496 10.67517239 -5 9 C-4.67 7.68 -4.34 6.36 -4 5 C-2.68 4.67 -1.36 4.34 0 4 C0 2.68 0 1.36 0 0 Z " fill="#D8CCBD" transform="translate(97,33)"/>
<path d="M0 0 C3.87467873 1.25665256 6.10609704 2.31187319 8 6 C8.41508447 10.5659292 8.00007696 13.87484127 6 18 C6.66 18 7.32 18 8 18 C8.06058594 17.30132812 8.12117188 16.60265625 8.18359375 15.8828125 C8.26738281 14.97273438 8.35117188 14.06265625 8.4375 13.125 C8.51871094 12.22007813 8.59992188 11.31515625 8.68359375 10.3828125 C9 8 9 8 10 6 C10.66 6 11.32 6 12 6 C12.33 7.32 12.66 8.64 13 10 C13.99 9.34 14.98 8.68 16 8 C15.835 8.763125 15.67 9.52625 15.5 10.3125 C14.90854604 13.03596236 14.90854604 13.03596236 15 16 C16.32 15.67 17.64 15.34 19 15 C18.01 16.98 17.02 18.96 16 21 C15.67 20.34 15.34 19.68 15 19 C12.66924071 19.95865509 12.66924071 19.95865509 11 23 C10.67 21.35 10.34 19.7 10 18 C9.67 18.99 9.34 19.98 9 21 C7.68 20.67 6.36 20.34 5 20 C4.06695221 16.68249673 4.07762014 14.31791184 4.75 11 C5.13743818 8.96071023 5.13743818 8.96071023 5 7 C2.68726558 4.1028059 2.68726558 4.1028059 0 2 C0 1.34 0 0.68 0 0 Z " fill="#39442C" transform="translate(89,63)"/>
<path d="M0 0 C0.33 1.32 0.66 2.64 1 4 C1.825 3.896875 2.65 3.79375 3.5 3.6875 C7.72231778 4.06449266 9.85217727 5.52477484 13.265625 7.90625 C14.9402086 9.17780649 14.9402086 9.17780649 17 9 C17 7.02 17 5.04 17 3 C18.65 3.66 20.3 4.32 22 5 C21.49396008 7.16874252 21.00016187 8.99967627 20 11 C20.66 11.33 21.32 11.66 22 12 C21.01 13.485 21.01 13.485 20 15 C19.34 15 18.68 15 18 15 C17.34 14.34 16.68 13.68 16 13 C11.53957573 9.32809401 7.64121003 7.26639409 2 6 C2.54140625 7.03060547 2.54140625 7.03060547 3.09375 8.08203125 C3.78984375 9.43361328 3.78984375 9.43361328 4.5 10.8125 C4.9640625 11.70582031 5.428125 12.59914063 5.90625 13.51953125 C7 16 7 16 7 19 C2.87424045 15.19995831 0.16821157 12.43963653 -0.11328125 6.68359375 C-0.1237616 4.45127905 -0.08746779 2.23042856 0 0 Z " fill="#21524D" transform="translate(133,76)"/>
<path d="M0 0 C1.5625 1.25 1.5625 1.25 3 3 C2.6875 5.1875 2.6875 5.1875 2 7 C2.66 7 3.32 7 4 7 C4 7.66 4 8.32 4 9 C3.34 9 2.68 9 2 9 C1.67 9.99 1.34 10.98 1 12 C2.98 11.34 4.96 10.68 7 10 C7 9.01 7 8.02 7 7 C8.5 5.3125 8.5 5.3125 10 4 C11.83691257 7.78187881 12.15837626 9.94568308 11 14 C12.65 15.32 14.3 16.64 16 18 C15.67 18.66 15.34 19.32 15 20 C14.19949219 19.49339844 14.19949219 19.49339844 13.3828125 18.9765625 C7.6927583 15.57040549 2.55420827 13.91676817 -4 13 C-2.68 12.67 -1.36 12.34 0 12 C0 10.68 0 9.36 0 8 C-0.99 8.33 -1.98 8.66 -3 9 C-3 4.72290301 -2.29379749 3.44069624 0 0 Z " fill="#0E4851" transform="translate(46,67)"/>
<path d="M0 0 C2 2 2 2 2.3125 4.9375 C2 8 2 8 0.875 9.875 C-1.84218824 11.50531294 -3.89652746 11.33015665 -7 11 C-9 9 -9 9 -9.3125 5.5625 C-9 2 -9 2 -7.875 0 C-5.01126853 -1.52732345 -3.04699809 -0.84278671 0 0 Z " fill="#1B1B1B" transform="translate(66,168)"/>
<path d="M0 0 C2.375 1.3125 2.375 1.3125 4 3 C4 3.99 4 4.98 4 6 C3.01 6 2.02 6 1 6 C0.67 5.34 0.34 4.68 0 4 C-1.66611905 3.957279 -3.33382885 3.95936168 -5 4 C-6.34404775 5.11836224 -6.34404775 5.11836224 -6.125 8 C-6.34404775 10.88163776 -6.34404775 10.88163776 -5 12 C-3.33382885 12.04063832 -1.66611905 12.042721 0 12 C0.33 11.34 0.66 10.68 1 10 C1.99 10 2.98 10 4 10 C3.42655063 12.86724686 3.1385485 13.8614515 1 16 C-2.81884318 16.42431591 -5.12405448 16.5390434 -8.4375 14.5 C-10.63559176 10.98305319 -10.81157964 8.04133533 -10 4 C-7.29356525 -0.16374577 -4.81729865 -0.70252272 0 0 Z " fill="#060606" transform="translate(50,163)"/>
<path d="M0 0 C3.3 0 6.6 0 10 0 C10 0.99 10 1.98 10 3 C7.69 3 5.38 3 3 3 C3 4.32 3 5.64 3 7 C5.31 7 7.62 7 10 7 C10 7.66 10 8.32 10 9 C7.69 9 5.38 9 3 9 C3 10.32 3 11.64 3 13 C5.31 13 7.62 13 10 13 C10 13.99 10 14.98 10 16 C6.7 16 3.4 16 0 16 C0 10.72 0 5.44 0 0 Z " fill="#030303" transform="translate(86,163)"/>
<path d="M0 0 C1.5 1 1.5 1 3 3 C3.27345479 5.71846235 3.13491285 8.25677199 3 11 C2.06027344 11.22042969 2.06027344 11.22042969 1.1015625 11.4453125 C-1.40717493 12.13383034 -3.6700166 12.83713809 -6 14 C-7.68036511 17.02884844 -7.68036511 17.02884844 -8 20 C-7.38511719 20.02578125 -6.77023438 20.0515625 -6.13671875 20.078125 C-5.32847656 20.13484375 -4.52023438 20.1915625 -3.6875 20.25 C-2.48673828 20.31960937 -2.48673828 20.31960937 -1.26171875 20.390625 C1.66467743 21.17908407 2.44016602 22.4759968 4 25 C2.22739369 24.54857225 0.4569632 24.08859477 -1.3125 23.625 C-2.79169922 23.24214844 -2.79169922 23.24214844 -4.30078125 22.8515625 C-7 22 -7 22 -10 20 C-9.125 12.125 -9.125 12.125 -8 11 C-6.33382885 10.95936168 -4.66611905 10.957279 -3 11 C-3.061875 9.9275 -3.12375 8.855 -3.1875 7.75 C-2.99456691 3.89133813 -2.60334924 2.71182212 0 0 Z " fill="#265139" transform="translate(108,21)"/>
<path d="M0 0 C2.3431213 0.25561323 4.67843403 0.59270772 7 1 C8.71466036 4.42932071 8.05404056 8.21716065 8 12 C4.7 12 1.4 12 -2 12 C-2.33 10.35 -2.66 8.7 -3 7 C0.22791555 4.8480563 1.28400809 4.79913557 5 5 C5 4.34 5 3.68 5 3 C2.69 3.33 0.38 3.66 -2 4 C-1.34 2.68 -0.68 1.36 0 0 Z " fill="#252525" transform="translate(127,167)"/>
<path d="M0 0 C2.98704569 0.49784095 4.39324263 1.26216175 7 3 C6.375 4.9375 6.375 4.9375 5 7 C-0.13095631 8.53928689 -5.6830874 8.09456959 -11 8 C-11.04254356 6.00045254 -11.04080783 3.99958364 -11 2 C-10 1 -10 1 -7.4375 0.9375 C-6.2309375 0.9684375 -6.2309375 0.9684375 -5 1 C-4.67 2.65 -4.34 4.3 -4 6 C-3.34 6 -2.68 6 -2 6 C-1.855625 5.195625 -1.71125 4.39125 -1.5625 3.5625 C-1 1 -1 1 0 0 Z " fill="#ACCBD3" transform="translate(107,130)"/>
<path d="M0 0 C5.75 -0.125 5.75 -0.125 8 1 C8 4.3 8 7.6 8 11 C5.72135417 11.74869792 3.44270833 12.49739583 1.1640625 13.24609375 C-1.01031799 13.95179729 -1.01031799 13.95179729 -3 15 C-2.37299912 10.98719439 -1.07671169 7.49596428 0.4765625 3.76953125 C1.24325477 1.91771427 1.24325477 1.91771427 0 0 Z " fill="#F39D23" transform="translate(105,66)"/>
<path d="M0 0 C0.33 0 0.66 0 1 0 C0.96519531 0.81984375 0.93039063 1.6396875 0.89453125 2.484375 C0.86746094 3.56203125 0.84039062 4.6396875 0.8125 5.75 C0.77769531 6.81734375 0.74289063 7.8846875 0.70703125 8.984375 C1.03491668 12.35940907 1.88857443 13.45077228 4 16 C4 16.99 4 17.98 4 19 C-0.62 19 -5.24 19 -10 19 C-10 16 -10 16 -8.5 14.3125 C-8.005 13.879375 -7.51 13.44625 -7 13 C-7.66 12.67 -8.32 12.34 -9 12 C-9 11.34 -9 10.68 -9 10 C-8.01 10 -7.02 10 -6 10 C-6.33 7.36 -6.66 4.72 -7 2 C-5.5 3 -5.5 3 -4 5 C-3.51106557 8.91147543 -3.75424694 12.26274081 -5 16 C-3.35 16 -1.7 16 0 16 C-0.33 15.34 -0.66 14.68 -1 14 C-1.09632897 12.18958207 -1.12981533 10.37547247 -1.125 8.5625 C-1.12886719 7.11037109 -1.12886719 7.11037109 -1.1328125 5.62890625 C-1 3 -1 3 0 0 Z " fill="#1E493B" transform="translate(101,83)"/>
<path d="M0 0 C5.31140987 1.62293079 10.16977256 3.43208992 14.98046875 6.23046875 C19.24128328 7.85402864 22.73968583 7.28140646 26.796875 5.46875 C28.12031306 4.82413305 29.43800406 4.16759715 30.75 3.5 C37.79054054 0 37.79054054 0 40 0 C40 0.99 40 1.98 40 3 C39.34773438 3.25394531 38.69546875 3.50789063 38.0234375 3.76953125 C34.17067671 5.28676891 30.44728324 6.75443273 26.8125 8.75 C22.71757431 10.56996697 19.12563781 10.74273614 14.83959961 9.24511719 C12.54380425 8.22609705 10.30247419 7.13630225 8.0625 6 C7.28326172 5.6184375 6.50402344 5.236875 5.70117188 4.84375 C3.7947261 3.90807109 1.89648406 2.9557085 0 2 C0 1.34 0 0.68 0 0 Z " fill="#383F26" transform="translate(78,109)"/>
<path d="M0 0 C0.99 0 1.98 0 3 0 C3.33 2.64 3.66 5.28 4 8 C4.99 7.01 5.98 6.02 7 5 C7.99 5.33 8.98 5.66 10 6 C9.34 6.66 8.68 7.32 8 8 C8.35299007 11.44165321 9.04581692 13.06872538 11 16 C8.625 15.6875 8.625 15.6875 6 15 C5.34 14.01 4.68 13.02 4 12 C3.67 13.32 3.34 14.64 3 16 C2.01 16 1.02 16 0 16 C0 10.72 0 5.44 0 0 Z " fill="#090909" transform="translate(151,163)"/>
<path d="M0 0 C3.59053307 1.96463131 6.28311164 4.07866173 9.3125 6.8125 C8.6525 7.4725 7.9925 8.1325 7.3125 8.8125 C6.62414063 8.18021484 6.62414063 8.18021484 5.921875 7.53515625 C5.30828125 6.98730469 4.6946875 6.43945312 4.0625 5.875 C3.45921875 5.32972656 2.8559375 4.78445312 2.234375 4.22265625 C-1.69882713 1.33670916 -5.93510826 1.49030395 -10.6875 1.8125 C-17.29457949 4.05218796 -20.71358562 7.24901987 -24.6875 12.8125 C-25.0175 11.8225 -25.3475 10.8325 -25.6875 9.8125 C-19.53118963 0.05681327 -10.93938333 -3.52285226 0 0 Z " fill="#255963" transform="translate(53.6875,60.1875)"/>
<path d="M0 0 C1.0828125 0.37125 1.0828125 0.37125 2.1875 0.75 C2.1875 1.41 2.1875 2.07 2.1875 2.75 C3.1775 3.08 4.1675 3.41 5.1875 3.75 C5.1875 5.07 5.1875 6.39 5.1875 7.75 C0.5675 7.75 -4.0525 7.75 -8.8125 7.75 C-7.5806791 2.82271639 -5.49813979 -0.48872354 0 0 Z " fill="#315A62" transform="translate(94.8125,18.25)"/>
<path d="M0 0 C0.99 0 1.98 0 3 0 C3.66 2.31 4.32 4.62 5 7 C5 6.67 5 6.34 5 6 C5.32380126 4.66431979 5.65657551 3.33076989 6 2 C7.9375 1.4375 7.9375 1.4375 10 1 C11 2 11 2 11.0625 5.5625 C11.041875 6.696875 11.02125 7.83125 11 9 C9.02 9.33 7.04 9.66 5 10 C5 14.29 5 18.58 5 23 C4.67 23 4.34 23 4 23 C3.96261719 22.03578125 3.92523438 21.0715625 3.88671875 20.078125 C3.82097656 18.81484375 3.75523438 17.5515625 3.6875 16.25 C3.62949219 14.99703125 3.57148437 13.7440625 3.51171875 12.453125 C2.98419411 8.8933404 2.27234635 7.65912871 0 5 C-0.1875 2.25 -0.1875 2.25 0 0 Z " fill="#38636E" transform="translate(82,129)"/>
<path d="M0 0 C2.1640625 -0.29296875 2.1640625 -0.29296875 4.625 -0.1875 C5.44226563 -0.16042969 6.25953125 -0.13335937 7.1015625 -0.10546875 C8.04128906 -0.05326172 8.04128906 -0.05326172 9 0 C7.69715366 3.90853901 6.2920056 6.46045282 3 9 C-0.81875349 9.58750054 -3.53269093 8.58505557 -7 7 C-6.21625 6.401875 -5.4325 5.80375 -4.625 5.1875 C-1.85425677 3.08914751 -1.85425677 3.08914751 0 0 Z " fill="#89CFDF" transform="translate(147,63)"/>
<path d="M0 0 C0.99 0.33 1.98 0.66 3 1 C2.67 1.99 2.34 2.98 2 4 C1.01 4.33 0.02 4.66 -1 5 C-1.33 5.99 -1.66 6.98 -2 8 C-0.02 7.67 1.96 7.34 4 7 C4.33 7.66 4.66 8.32 5 9 C4.13375 9.495 3.2675 9.99 2.375 10.5 C-1.61928258 13.17236525 -4.76512065 16.7442191 -7 21 C-7.21988 23.67001177 -7.21988 23.67001177 -7 26 C-7.99 25.67 -8.98 25.34 -10 25 C-10.73046875 22.93359375 -10.73046875 22.93359375 -11.1875 20.4375 C-11.34605469 19.61121094 -11.50460938 18.78492187 -11.66796875 17.93359375 C-11.83232422 16.97646484 -11.83232422 16.97646484 -12 16 C-11.34 16.33 -10.68 16.66 -10 17 C-10 17.66 -10 18.32 -10 19 C-9.34 19 -8.68 19 -8 19 C-7.731875 18.236875 -7.46375 17.47375 -7.1875 16.6875 C-6 14 -6 14 -4.3125 12.625 C-2.58305217 10.86707422 -2.58305217 10.86707422 -3.3125 7.3125 C-3.6528125 5.6728125 -3.6528125 5.6728125 -4 4 C-2.35 3.67 -0.7 3.34 1 3 C0.67 2.01 0.34 1.02 0 0 Z " fill="#13523F" transform="translate(161,72)"/>
<path d="M0 0 C2.05078125 0.03255208 4.1015625 0.06510417 6.15234375 0.09765625 C6.93077313 3.50328477 7.25212496 6.60531381 7.15234375 10.09765625 C4.28509689 9.52420688 3.29089225 9.23620475 1.15234375 7.09765625 C-0.83122108 6.38357291 -2.83081062 5.71147883 -4.84765625 5.09765625 C-2.44354091 0.12915121 -2.44354091 0.12915121 0 0 Z " fill="#D67D20" transform="translate(94.84765625,57.90234375)"/>
<path d="M0 0 C2.31 0 4.62 0 7 0 C7.33 0.99 7.66 1.98 8 3 C6.35 3 4.7 3 3 3 C3.804375 3.2475 4.60875 3.495 5.4375 3.75 C8 5 8 5 8.9375 7 C8.958125 7.66 8.97875 8.32 9 9 C7 11 7 11 3.375 11.125 C2.26125 11.08375 1.1475 11.0425 0 11 C-0.33 9.68 -0.66 8.36 -1 7 C-0.01 7 0.98 7 2 7 C2 7.66 2 8.32 2 9 C2.99 9 3.98 9 5 9 C5 8.34 5 7.68 5 7 C3.02 6.34 1.04 5.68 -1 5 C-0.67 3.35 -0.34 1.7 0 0 Z " fill="#242424" transform="translate(105,168)"/>
<path d="M0 0 C0.928125 0.20625 1.85625 0.4125 2.8125 0.625 C3.1425 1.945 3.4725 3.265 3.8125 4.625 C2.8225 4.625 1.8325 4.625 0.8125 4.625 C0.8125 3.965 0.8125 3.305 0.8125 2.625 C-0.5075 2.625 -1.8275 2.625 -3.1875 2.625 C-2.8575 4.605 -2.5275 6.585 -2.1875 8.625 C-0.2075 8.295 1.7725 7.965 3.8125 7.625 C3.1525 8.945 2.4925 10.265 1.8125 11.625 C-3.53715035 11.98164336 -3.53715035 11.98164336 -6.125 10.5625 C-7.85415678 7.40933176 -7.0465699 4.99991745 -6.1875 1.625 C-3.1875 -0.375 -3.1875 -0.375 0 0 Z " fill="#1E1E1E" transform="translate(144.1875,167.375)"/>
<path d="M0 0 C0.9796875 0.06703125 1.959375 0.1340625 2.96875 0.203125 C5.5 0.75 5.5 0.75 7.5 3.75 C3.84471125 6.0893848 0.76476789 6.04928196 -3.5 5.75 C-6.4375 4.75 -6.4375 4.75 -8.5 3.75 C-8.17 2.76 -7.84 1.77 -7.5 0.75 C-4.82055615 -0.58972193 -2.97401369 -0.23479055 0 0 Z " fill="#7BC0CE" transform="translate(46.5,85.25)"/>
<path d="M0 0 C4.92307692 4.30769231 4.92307692 4.30769231 5.3125 7.8125 C5.1578125 8.8953125 5.1578125 8.8953125 5 10 C1.38026598 11.31626692 -1.09567131 12 -5 12 C-4.6875 10.0625 -4.6875 10.0625 -4 8 C-3.01 7.67 -2.02 7.34 -1 7 C-1.33 5.02 -1.66 3.04 -2 1 C-1.34 0.67 -0.68 0.34 0 0 Z " fill="#69A451" transform="translate(164,68)"/>
<path d="M0 0 C0.28875 0.61875 0.5775 1.2375 0.875 1.875 C3.05911259 6.00054601 5.93172795 6.92984747 10.125 8.625 C11.22070312 9.07101563 12.31640625 9.51703125 13.4453125 9.9765625 C14.28835937 10.31429687 15.13140625 10.65203125 16 11 C16 11.66 16 12.32 16 13 C14.35 13.33 12.7 13.66 11 14 C11.33 13.34 11.66 12.68 12 12 C10.35 12 8.7 12 7 12 C6.67 12.66 6.34 13.32 6 14 C3.36 14 0.72 14 -2 14 C-2 13.67 -2 13.34 -2 13 C-0.02 13 1.96 13 4 13 C3.34 11.96875 2.68 10.9375 2 9.875 C0.02717274 6.46423174 -0.38827665 3.9798357 0 0 Z " fill="#66A352" transform="translate(101,89)"/>
<path d="M0 0 C0.33 0 0.66 0 1 0 C1.33 6.93 1.66 13.86 2 21 C0.35 21 -1.3 21 -3 21 C-2.98839844 20.25234375 -2.97679688 19.5046875 -2.96484375 18.734375 C-2.95582031 17.74953125 -2.94679688 16.7646875 -2.9375 15.75 C-2.92589844 14.77546875 -2.91429688 13.8009375 -2.90234375 12.796875 C-2.98804423 10.34241322 -3.29293934 8.33831086 -4 6 C-3.01 6 -2.02 6 -1 6 C-0.67 4.02 -0.34 2.04 0 0 Z " fill="#766147" transform="translate(99,78)"/>
<path d="M0 0 C0.99 0 1.98 0 3 0 C3.66 0.66 4.32 1.32 5 2 C5.66 2 6.32 2 7 2 C7 6 7 6 6 9 C6.66 9 7.32 9 8 9 C8 10.32 8 11.64 8 13 C5.36 13 2.72 13 0 13 C0.66 12.67 1.32 12.34 2 12 C1.67 10.7625 1.34 9.525 1 8.25 C0.20108841 5.25408155 0 3.19892281 0 0 Z " fill="#7EC4CF" transform="translate(38,66)"/>
<path d="M0 0 C3.98566544 2.10354565 6.53073752 4.20791833 9 8 C9.75 11.3125 9.75 11.3125 10 14 C8.35 14 6.7 14 5 14 C4.34 10.7 3.68 7.4 3 4 C1.35 4 -0.3 4 -2 4 C-2 3.34 -2 2.68 -2 2 C-1.34 2 -0.68 2 0 2 C0 1.34 0 0.68 0 0 Z " fill="#85CADB" transform="translate(108,16)"/>
<path d="M0 0 C0 0.66 0 1.32 0 2 C-1.134375 2.391875 -2.26875 2.78375 -3.4375 3.1875 C-4.613125 3.785625 -5.78875 4.38375 -7 5 C-7.82704005 7.46823091 -7.82704005 7.46823091 -8 10 C-8.53625 10.474375 -9.0725 10.94875 -9.625 11.4375 C-11.33761098 13.02862126 -11.33761098 13.02862126 -10.9375 16 C-9.88710616 19.36126028 -8.98886835 20.26452805 -6 22 C-7.32 22.33 -8.64 22.66 -10 23 C-14.03333333 17.86666667 -14.03333333 17.86666667 -13.875 13.75 C-13 11 -13 11 -11 9 C-10.2884375 7.2675 -10.2884375 7.2675 -9.5625 5.5 C-7.30621176 0.44591434 -5.2619701 -0.28443082 0 0 Z " fill="#285541" transform="translate(89,62)"/>
<path d="M0 0 C2.64 0 5.28 0 8 0 C7.67 0.66 7.34 1.32 7 2 C5.68 2 4.36 2 3 2 C3 3.65 3 5.3 3 7 C3.99 7 4.98 7 6 7 C6 7.66 6 8.32 6 9 C5.01 9 4.02 9 3 9 C3 10.98 3 12.96 3 15 C2.01 15 1.02 15 0 15 C0 10.05 0 5.1 0 0 Z " fill="#020202" transform="translate(71,164)"/>
<path d="M0 0 C0.33 0.99 0.66 1.98 1 3 C-0.6232687 3.6708712 -2.24867578 4.33657029 -3.875 5 C-4.77992187 5.37125 -5.68484375 5.7425 -6.6171875 6.125 C-9 7 -9 7 -11 7 C-11 7.66 -11 8.32 -11 9 C-10.34 9 -9.68 9 -9 9 C-9 9.66 -9 10.32 -9 11 C-10.53125 12.2890625 -10.53125 12.2890625 -12.5 13.625 C-13.1496875 14.07101563 -13.799375 14.51703125 -14.46875 14.9765625 C-14.9740625 15.31429687 -15.479375 15.65203125 -16 16 C-16 14.68 -16 13.36 -16 12 C-15.34 11.67 -14.68 11.34 -14 11 C-14 9.35 -14 7.7 -14 6 C-9.38 4.02 -4.76 2.04 0 0 Z " fill="#2C554E" transform="translate(91,93)"/>
<path d="M0 0 C2.475 0.99 2.475 0.99 5 2 C4.01 3.98 3.02 5.96 2 8 C1.01 8 0.02 8 -1 8 C-1.66 8.66 -2.32 9.32 -3 10 C-4.32 10 -5.64 10 -7 10 C-6.50168276 6.31245243 -5.89932357 4.39509338 -3 2 C-2.34 2.33 -1.68 2.66 -1 3 C-0.67 2.01 -0.34 1.02 0 0 Z " fill="#76BDCA" transform="translate(158,64)"/>
<path d="M0 0 C0.495 0.33 0.99 0.66 1.5 1 C5.09090894 2.43636358 8.14456127 2.12851462 12 2 C12 2.66 12 3.32 12 4 C10.35 4 8.7 4 7 4 C5.98888907 7.04913228 5.98888907 7.04913228 7 10 C0.125 8.125 0.125 8.125 -1 7 C-1.125 4 -1.125 4 -1 1 C-0.67 0.67 -0.34 0.34 0 0 Z " fill="#EBF4F4" transform="translate(103,85)"/>
<path d="M0 0 C0 0.99 0 1.98 0 3 C-1.051875 3.391875 -2.10375 3.78375 -3.1875 4.1875 C-6.94185504 5.80956414 -9.39924832 7.78730674 -12 11 C-12.87238858 13.67790896 -12.87238858 13.67790896 -13 16 C-14.32 16 -15.64 16 -17 16 C-16.01017021 9.93729255 -13.75545012 7.37287396 -9.0703125 3.48046875 C-5.9181924 1.22640551 -3.92435558 0 0 0 Z " fill="#255662" transform="translate(96,12)"/>
<path d="M0 0 C3.375 -0.125 3.375 -0.125 7 0 C9 2 9 2 9.125 4.625 C9.08375 5.40875 9.0425 6.1925 9 7 C5.625 7.125 5.625 7.125 2 7 C0 5 0 5 -0.125 2.375 C-0.08375 1.59125 -0.0425 0.8075 0 0 Z " fill="#0E4A3C" transform="translate(138,71)"/>
<path d="M0 0 C2.97 0.495 2.97 0.495 6 1 C4.68 1.99 3.36 2.98 2 4 C3.98 4.99 5.96 5.98 8 7 C7.67 7.99 7.34 8.98 7 10 C6.01 10 5.02 10 4 10 C3.67 11.32 3.34 12.64 3 14 C0.65454672 11.65454672 0.04491112 10.04014162 -0.09765625 6.73828125 C-0.08605469 5.93777344 -0.07445313 5.13726562 -0.0625 4.3125 C-0.05347656 3.50425781 -0.04445313 2.69601563 -0.03515625 1.86328125 C-0.02355469 1.24839844 -0.01195313 0.63351563 0 0 Z " fill="#4F8C44" transform="translate(81,29)"/>
<path d="M0 0 C0.99 0 1.98 0 3 0 C3 0.99 3 1.98 3 3 C3.66 3 4.32 3 5 3 C5 3.66 5 4.32 5 5 C4.34 5 3.68 5 3 5 C3 6.98 3 8.96 3 11 C3.66 11 4.32 11 5 11 C5 11.99 5 12.98 5 14 C3.35 13.67 1.7 13.34 0 13 C0 10.36 0 7.72 0 5 C-0.66 5 -1.32 5 -2 5 C-2 4.34 -2 3.68 -2 3 C-1.34 3 -0.68 3 0 3 C0 2.01 0 1.02 0 0 Z " fill="#101010" transform="translate(117,165)"/>
<path d="M0 0 C0.07476562 0.62648437 0.14953125 1.25296875 0.2265625 1.8984375 C0.62998447 4.40598191 1.06609491 6.63497183 2 9 C4.98283157 10.69165301 4.98283157 10.69165301 8 11 C8 11.33 8 11.66 8 12 C1.85310727 11.63118644 -0.69027374 10.09949571 -5 6 C-4.67 4.35 -4.34 2.7 -4 1 C-1 0 -1 0 0 0 Z " fill="#6BA752" transform="translate(89,38)"/>
<path d="M0 0 C0.33 0.99 0.66 1.98 1 3 C-0.2578125 5.0078125 -0.2578125 5.0078125 -2.125 7.125 C-2.72570312 7.82882813 -3.32640625 8.53265625 -3.9453125 9.2578125 C-6.31139318 11.264033 -7.95461799 11.65225742 -11 12 C-11 11.34 -11 10.68 -11 10 C-9.02 9.01 -7.04 8.02 -5 7 C-6.32 7 -7.64 7 -9 7 C-8.25675659 4.60510457 -7.52942646 3.29222384 -5.30859375 2.06640625 C-3.55926499 1.32780077 -1.78065851 0.65950315 0 0 Z " fill="#559557" transform="translate(168,84)"/>
<path d="M0 0 C0 0.99 0 1.98 0 3 C-0.59167969 3.13535156 -1.18335938 3.27070312 -1.79296875 3.41015625 C-7.20836303 4.88547574 -10.06840872 6.43950937 -13.125 11.18359375 C-14.04910983 13.10194675 -14.56132651 14.92087042 -15 17 C-15.66 17 -16.32 17 -17 17 C-17 11.09210209 -13.8611594 8.09636347 -10.10546875 3.953125 C-6.61538657 0.71557196 -4.8195098 0 0 0 Z " fill="#56985F" transform="translate(170,80)"/>
<path d="M0 0 C4.2638099 -0.36546942 6.58630532 0.41666348 10 3 C11.375 5.0625 11.375 5.0625 12 7 C11.67 7.66 11.34 8.32 11 9 C10.34 9 9.68 9 9 9 C8.34 8.34 7.68 7.68 7 7 C3.86650268 5.95550089 3.01031744 6.06576355 0 7 C1 4 1 4 3 2 C2.01 1.67 1.02 1.34 0 1 C0 0.67 0 0.34 0 0 Z " fill="#8AD3E4" transform="translate(48,63)"/>
<path d="M0 0 C0.66 0 1.32 0 2 0 C1.49362019 2.02551922 0.98687821 4.04811323 0.4375 6.0625 C-0.11013044 8.15667366 -0.11013044 8.15667366 0 11 C-0.5671875 10.83757813 -1.134375 10.67515625 -1.71875 10.5078125 C-4.05543918 9.98765909 -6.10980766 9.86681441 -8.5 9.875 C-9.62921875 9.87113281 -9.62921875 9.87113281 -10.78125 9.8671875 C-12.973535 9.99841583 -14.89319137 10.39668662 -17 11 C-17 10.34 -17 9.68 -17 9 C-15.04200486 8.66468585 -13.08359226 8.33180857 -11.125 8 C-9.48917969 7.7215625 -9.48917969 7.7215625 -7.8203125 7.4375 C-5 7 -5 7 -3 7 C-2.690625 6.030625 -2.38125 5.06125 -2.0625 4.0625 C-1 1 -1 1 0 0 Z " fill="#E7F6F8" transform="translate(54,50)"/>
<path d="M0 0 C0 0.66 0 1.32 0 2 C-0.66 2 -1.32 2 -2 2 C-2 2.66 -2 3.32 -2 4 C-5.4019487 6.09350689 -8.05272412 6.17942163 -12 6 C-12.33 4.68 -12.66 3.36 -13 2 C-11.58461283 1.66127487 -10.16762037 1.32925376 -8.75 1 C-7.56664063 0.7215625 -7.56664063 0.7215625 -6.359375 0.4375 C-4 0 -4 0 0 0 Z " fill="#DEA13A" transform="translate(107,111)"/>
<path d="M0 0 C0.125 3.375 0.125 3.375 0 7 C-0.66 7.66 -1.32 8.32 -2 9 C-2.66 8.34 -3.32 7.68 -4 7 C-4.99 7.33 -5.98 7.66 -7 8 C-7.33 6.68 -7.66 5.36 -8 4 C-3.375 0 -3.375 0 0 0 Z " fill="#366A54" transform="translate(164,53)"/>
<path d="M0 0 C0.763125 0.20625 1.52625 0.4125 2.3125 0.625 C1.4375 5.5 1.4375 5.5 0.3125 6.625 C-1.35367115 6.66563832 -3.02138095 6.667721 -4.6875 6.625 C-5.0175 4.975 -5.3475 3.325 -5.6875 1.625 C-2.6875 -0.375 -2.6875 -0.375 0 0 Z " fill="#525252" transform="translate(129.6875,172.375)"/>
<path d="M0 0 C4.70588235 0.70588235 4.70588235 0.70588235 6 2 C6.4556962 7.24050633 6.4556962 7.24050633 4.875 9.875 C2.21965017 11.4682099 0.03210482 11.20214032 -3 11 C-2.34 10.34 -1.68 9.68 -1 9 C-0.01 9 0.98 9 2 9 C2.2502157 6.08365871 2.2502157 6.08365871 2 3 C1.01 2.34 0.02 1.68 -1 1 C-0.67 0.67 -0.34 0.34 0 0 Z " fill="#161616" transform="translate(62,168)"/>
<path d="M0 0 C-0.99 1.485 -0.99 1.485 -2 3 C-0.35 3 1.3 3 3 3 C3 3.33 3 3.66 3 4 C-8.52164009 4.3690205 -8.52164009 4.3690205 -14 2 C-11.01745874 0.01163916 -9.86191192 -0.34336635 -6.4375 -0.6875 C-5.25994141 -0.81705078 -5.25994141 -0.81705078 -4.05859375 -0.94921875 C-2 -1 -2 -1 0 0 Z " fill="#7BC0CF" transform="translate(100,27)"/>
<path d="M0 0 C0 0.99 0 1.98 0 3 C-0.96099609 3.38091797 -0.96099609 3.38091797 -1.94140625 3.76953125 C-2.80636719 4.11371094 -3.67132813 4.45789063 -4.5625 4.8125 C-5.47386719 5.17214844 -6.38523437 5.53179687 -7.32421875 5.90234375 C-9.55846722 6.81887487 -11.70485812 7.82066092 -13.875 8.875 C-17 10 -17 10 -19.1953125 9.0703125 C-19.79085937 8.71710938 -20.38640625 8.36390625 -21 8 C-19.69675781 7.51080078 -19.69675781 7.51080078 -18.3671875 7.01171875 C-17.21476562 6.57472656 -16.06234375 6.13773437 -14.875 5.6875 C-13.73804687 5.25824219 -12.60109375 4.82898438 -11.4296875 4.38671875 C-7.97845631 3.0465528 -7.97845631 3.0465528 -4.6953125 1.33203125 C-2 0 -2 0 0 0 Z " fill="#414628" transform="translate(118,109)"/>
<path d="M0 0 C6.46712188 1.16194152 12.09622349 3.1248748 18 6 C18 7.32 18 8.64 18 10 C17.01 9.67 16.02 9.34 15 9 C15 8.34 15 7.68 15 7 C14.41992188 6.81824219 13.83984375 6.63648437 13.2421875 6.44921875 C8.60852707 4.9581894 4.30237645 3.31666424 0 1 C0 0.67 0 0.34 0 0 Z " fill="#1A5143" transform="translate(102,93)"/>
<path d="M0 0 C0 0.66 0 1.32 0 2 C-0.56589844 2.26554687 -1.13179687 2.53109375 -1.71484375 2.8046875 C-2.44832031 3.15789062 -3.18179688 3.51109375 -3.9375 3.875 C-4.66839844 4.22304687 -5.39929688 4.57109375 -6.15234375 4.9296875 C-8.16332459 5.8684977 -8.16332459 5.8684977 -9 8 C-7.35 7.67 -5.7 7.34 -4 7 C-5.8125 9 -5.8125 9 -8 11 C-8.99 11 -9.98 11 -11 11 C-11.33 11.66 -11.66 12.32 -12 13 C-12.56123666 9.1835907 -12.03056013 8.04329351 -9.75 4.8125 C-6.41313818 1.39980041 -4.75926637 0 0 0 Z " fill="#124C29" transform="translate(168,83)"/>
<path d="M0 0 C1.5 1 1.5 1 3 3 C3.27345479 5.71846235 3.13491285 8.25677199 3 11 C2.34 11 1.68 11 1 11 C0.67 9.35 0.34 7.7 0 6 C-0.33 7.65 -0.66 9.3 -1 11 C-1.66 10.67 -2.32 10.34 -3 10 C-3.36923077 4.58461538 -3.36923077 4.58461538 -1.5 1.625 C-1.005 1.08875 -0.51 0.5525 0 0 Z " fill="#549858" transform="translate(108,21)"/>
<path d="M0 0 C0.99 0 1.98 0 3 0 C2.42655063 2.86724686 2.1385485 3.8614515 0 6 C-6.26440678 6.56949153 -6.26440678 6.56949153 -8.9375 4.5 C-9.4634375 3.7575 -9.4634375 3.7575 -10 3 C-6.92677456 2.08941469 -4.19902639 1.91113816 -1 2 C-0.67 1.34 -0.34 0.68 0 0 Z " fill="#202020" transform="translate(51,173)"/>
<path d="M0 0 C0.33 0 0.66 0 1 0 C1.02686553 1.97909398 1.04633375 3.95828971 1.0625 5.9375 C1.07410156 7.03964844 1.08570312 8.14179688 1.09765625 9.27734375 C1 12 1 12 0 13 C-1.99958364 13.04080783 -4.00045254 13.04254356 -6 13 C-5.34 12.67 -4.68 12.34 -4 12 C-4 10.35 -4 8.7 -4 7 C-3.34 7 -2.68 7 -2 7 C-2 6.34 -2 5.68 -2 5 C-1.34 5 -0.68 5 0 5 C0 3.35 0 1.7 0 0 Z " fill="#46747D" transform="translate(93,140)"/>
<path d="M0 0 C2.475 0.99 2.475 0.99 5 2 C4.49396008 4.16874252 4.00016187 5.99967627 3 8 C3.66 8.33 4.32 8.66 5 9 C4.01 10.485 4.01 10.485 3 12 C2.34 12 1.68 12 1 12 C-0.65173755 8.50220284 -1.22700539 6.68101617 0 3 C0 2.01 0 1.02 0 0 Z " fill="#79BECC" transform="translate(150,79)"/>
<path d="M0 0 C2.475 0.495 2.475 0.495 5 1 C5 1.66 5 2.32 5 3 C5.99 3 6.98 3 8 3 C8 3.66 8 4.32 8 5 C7.34 5 6.68 5 6 5 C5.93941406 5.69867188 5.87882812 6.39734375 5.81640625 7.1171875 C5.73261719 8.02726562 5.64882812 8.93734375 5.5625 9.875 C5.48128906 10.77992187 5.40007812 11.68484375 5.31640625 12.6171875 C5 15 5 15 4 17 C3.34 17 2.68 17 2 17 C2.2475 15.9790625 2.2475 15.9790625 2.5 14.9375 C3.30981132 10.17985847 3.73662275 6.44255289 1.5 2.0625 C1.005 1.381875 0.51 0.70125 0 0 Z " fill="#DD8022" transform="translate(93,64)"/>
<path d="M0 0 C0.33 0.99 0.66 1.98 1 3 C-0.2375 3.28875 -1.475 3.5775 -2.75 3.875 C-5.10302257 4.45293537 -6.97657776 4.98759999 -9.125 6.125 C-11.77042093 7.35952977 -14.12420987 7.13071773 -17 7 C-14.55213773 4.55213773 -12.25682658 3.69919356 -9.0625 2.375 C-7.47115234 1.70597656 -7.47115234 1.70597656 -5.84765625 1.0234375 C-3 0 -3 0 0 0 Z " fill="#254C2F" transform="translate(118,102)"/>
<path d="M0 0 C-1 3 -1 3 -3 4 C-4.70702735 4.06996014 -6.41668003 4.08440154 -8.125 4.0625 C-9.03507812 4.05347656 -9.94515625 4.04445313 -10.8828125 4.03515625 C-11.58148438 4.02355469 -12.28015625 4.01195313 -13 4 C-13 3.01 -13 2.02 -13 1 C-8.62426048 0.40667939 -4.42471556 -0.13827236 0 0 Z " fill="#69A54D" transform="translate(55,92)"/>
<path d="M0 0 C2.86724686 0.57344937 3.8614515 0.8614515 6 3 C4.02 3 2.04 3 0 3 C0.66 5.31 1.32 7.62 2 10 C1.34 10.66 0.68 11.32 0 12 C-0.99 12 -1.98 12 -3 12 C-2.88541307 10.56163249 -2.75790884 9.12429034 -2.625 7.6875 C-2.55539063 6.88699219 -2.48578125 6.08648437 -2.4140625 5.26171875 C-2 3 -2 3 0 0 Z " fill="#75BCC6" transform="translate(138,68)"/>
<path d="M0 0 C0.99 0.33 1.98 0.66 3 1 C2.34 1.66 1.68 2.32 1 3 C1.35299007 6.44165321 2.04581692 8.06872538 4 11 C0.75791433 10.64950425 -0.61527704 10.43778819 -2.8125 7.9375 C-3.204375 7.298125 -3.59625 6.65875 -4 6 C-2.84826645 3.53199953 -1.95216435 1.95216435 0 0 Z " fill="#191919" transform="translate(158,168)"/>
<path d="M0 0 C2.5 1.625 2.5 1.625 5 4 C5.3125 7.25 5.3125 7.25 5 10 C3.02 10.99 3.02 10.99 1 12 C0 11 0 11 -0.09765625 8.49609375 C-0.08605469 7.48675781 -0.07445313 6.47742188 -0.0625 5.4375 C-0.05347656 4.42558594 -0.04445313 3.41367188 -0.03515625 2.37109375 C-0.02355469 1.58863281 -0.01195313 0.80617187 0 0 Z " fill="#21515D" transform="translate(105,141)"/>
<path d="M0 0 C0 0.66 0 1.32 0 2 C-1.65071396 3.02611949 -3.31970006 4.02308143 -5 5 C-5.7115625 5.7734375 -5.7115625 5.7734375 -6.4375 6.5625 C-8.66904943 8.61552547 -11.12528751 9.1695275 -14 10 C-14 9.34 -14 8.68 -14 8 C-13.01 7.34 -12.02 6.68 -11 6 C-9.80767387 3.94996045 -9.80767387 3.94996045 -9 2 C-8.01 2 -7.02 2 -6 2 C-1.875 0 -1.875 0 0 0 Z " fill="#C5C8C8" transform="translate(74,35)"/>
<path d="M0 0 C1.98 0 3.96 0 6 0 C6 2.31 6 4.62 6 7 C3.64561267 8.42944945 2.51967567 9.08661261 -0.25 8.625 C-0.8275 8.41875 -1.405 8.2125 -2 8 C-1.071875 7.1028125 -1.071875 7.1028125 -0.125 6.1875 C2.13676954 3.99188856 2.13676954 3.99188856 4 1 C2.35 1.33 0.7 1.66 -1 2 C-0.67 1.34 -0.34 0.68 0 0 Z " fill="#4D8B3D" transform="translate(112,32)"/>
<path d="M0 0 C3 0 3 0 5.5 2.375 C6.325 3.24125 7.15 4.1075 8 5 C11.03525486 7.02350324 12.19426202 7.32124018 15.6875 7.625 C16.89986328 7.73714844 16.89986328 7.73714844 18.13671875 7.8515625 C18.75160156 7.90054688 19.36648437 7.94953125 20 8 C20 8.33 20 8.66 20 9 C14.94326812 10.18224519 11.20757737 10.60921438 6.625 7.875 C3.53075423 5.67451048 1.60088992 3.5019467 0 0 Z " fill="#295B4C" transform="translate(29,88)"/>
<path d="M0 0 C1.65 0.99 3.3 1.98 5 3 C3.49776416 7.20626034 0.71449966 8.73900021 -3 11 C-3.33 9.68 -3.66 8.36 -4 7 C-2.68 6.67 -1.36 6.34 0 6 C0 4.02 0 2.04 0 0 Z " fill="#539545" transform="translate(57,84)"/>
<path d="M0 0 C0 1.32 0 2.64 0 4 C0.66 4 1.32 4 2 4 C2 4.66 2 5.32 2 6 C-0.97 6 -3.94 6 -7 6 C-5.81753455 1.27013822 -4.95936146 0 0 0 Z " fill="#6FA849" transform="translate(107,35)"/>
<path d="M0 0 C0.66 0 1.32 0 2 0 C2.125 3.375 2.125 3.375 2 7 C1.34 7.66 0.68 8.32 0 9 C-0.30059943 11.36509361 -0.49515012 13.74441881 -0.625 16.125 C-0.69976562 17.40632813 -0.77453125 18.68765625 -0.8515625 20.0078125 C-0.90054688 20.99523437 -0.94953125 21.98265625 -1 23 C-1.33 23 -1.66 23 -2 23 C-2 18.38 -2 13.76 -2 9 C-2.66 8.67 -3.32 8.34 -4 8 C-3.01 7.34 -2.02 6.68 -1 6 C-0.26656572 2.93443402 -0.26656572 2.93443402 0 0 Z " fill="#365B60" transform="translate(114,129)"/>
<path d="M0 0 C0.33 0.99 0.66 1.98 1 3 C1.99 3 2.98 3 4 3 C3.67 3.66 3.34 4.32 3 5 C1.35 4.67 -0.3 4.34 -2 4 C-2 4.99 -2 5.98 -2 7 C-0.35 6.67 1.3 6.34 3 6 C2.67 6.66 2.34 7.32 2 8 C1.34 8 0.68 8 0 8 C0.33 9.32 0.66 10.64 1 12 C0.34 12 -0.32 12 -1 12 C-3.56616632 8.15075052 -3.55097676 5.5650696 -4 1 C-2.68 0.67 -1.36 0.34 0 0 Z " fill="#7EC0CE" transform="translate(150,71)"/>
<path d="M0 0 C2.475 0.495 2.475 0.495 5 1 C5 3.64 5 6.28 5 9 C3.0625 8.625 3.0625 8.625 1 8 C-0.35439668 5.29120665 -0.06501451 2.99066732 0 0 Z " fill="#F17B0C" transform="translate(97,59)"/>
<path d="M0 0 C0 1.32 0 2.64 0 4 C-2.78823655 5.0326802 -3.8677274 5.04509293 -6.75 4.0625 C-7.4925 3.711875 -8.235 3.36125 -9 3 C-9 2.34 -9 1.68 -9 1 C-5.8035914 -0.06546953 -3.34252724 -0.07427838 0 0 Z " fill="#8CD2DF" transform="translate(102,14)"/>
<path d="M0 0 C1.65 0 3.3 0 5 0 C5.625 1.875 5.625 1.875 6 4 C5.34 4.66 4.68 5.32 4 6 C1.375 5.625 1.375 5.625 -1 5 C-0.67 3.35 -0.34 1.7 0 0 Z " fill="#21515B" transform="translate(97,131)"/>
<path d="M0 0 C3.3 0.33 6.6 0.66 10 1 C10.33 2.65 10.66 4.3 11 6 C5.62694301 5.7357513 5.62694301 5.7357513 3 5 C1 2.4375 1 2.4375 0 0 Z " fill="#63A450" transform="translate(138,89)"/>
<path d="M0 0 C0 0.99 0 1.98 0 3 C-4.52451116 7.22287708 -7.52241596 9.15184904 -13.6875 9.0625 C-14.89986328 9.04896484 -14.89986328 9.04896484 -16.13671875 9.03515625 C-17.05904297 9.01775391 -17.05904297 9.01775391 -18 9 C-18 8.67 -18 8.34 -18 8 C-16.80503906 7.76216797 -16.80503906 7.76216797 -15.5859375 7.51953125 C-9.06589359 6.08385248 -4.6897677 4.82003903 0 0 Z " fill="#174D3F" transform="translate(61,89)"/>
<path d="M0 0 C1.32 0 2.64 0 4 0 C4.33 0.99 4.66 1.98 5 3 C4.34 3 3.68 3 3 3 C3 3.66 3 4.32 3 5 C2.34 5 1.68 5 1 5 C1 5.99 1 6.98 1 8 C0.01 7.67 -0.98 7.34 -2 7 C-2.125 4.625 -2.125 4.625 -2 2 C-1.34 1.34 -0.68 0.68 0 0 Z " fill="#5DA345" transform="translate(83,65)"/>
<path d="M0 0 C0.33 0.66 0.66 1.32 1 2 C1.66 2 2.32 2 3 2 C3 3.98 3 5.96 3 8 C2.01 8 1.02 8 0 8 C-0.66 7.01 -1.32 6.02 -2 5 C-4.55183404 3.79549696 -4.55183404 3.79549696 -7 3 C-4 2 -4 2 -1 3 C-0.67 2.01 -0.34 1.02 0 0 Z " fill="#E6E6E6" transform="translate(114,168)"/>
<path d="M0 0 C0.66 0 1.32 0 2 0 C2 0.66 2 1.32 2 2 C3.43640171 2.19573608 4.87419504 2.38127816 6.3125 2.5625 C7.11300781 2.66691406 7.91351563 2.77132812 8.73828125 2.87890625 C11.16817116 3.14755178 11.16817116 3.14755178 14 2 C13 5 13 5 11 6 C6.77853434 6.28143104 3.82708507 5.80098121 0 4 C0 2.68 0 1.36 0 0 Z " fill="#2F4E47" transform="translate(102,82)"/>
<path d="M0 0 C0.66 0 1.32 0 2 0 C4.125 4.625 4.125 4.625 3 8 C1.35 8.33 -0.3 8.66 -2 9 C-2 5.20442119 -1.49821059 3.37097383 0 0 Z " fill="#0E4753" transform="translate(36,69)"/>
<path d="M0 0 C6.13053511 -0.32712342 10.62669111 -0.39366878 16 3 C15.01 3.66 14.02 4.32 13 5 C12.43796875 4.68289062 11.8759375 4.36578125 11.296875 4.0390625 C8.84803683 2.93125475 6.91612145 2.61024601 4.25 2.375 C3.45078125 2.30023438 2.6515625 2.22546875 1.828125 2.1484375 C1.22484375 2.09945313 0.6215625 2.05046875 0 2 C0 1.34 0 0.68 0 0 Z " fill="#164F55" transform="translate(96,12)"/>
<path d="M0 0 C0.66 0 1.32 0 2 0 C2.33 2.31 2.66 4.62 3 7 C1.02 7.99 -0.96 8.98 -3 10 C-2.39009109 6.44219804 -1.4216319 3.3171411 0 0 Z " fill="#CC8B32" transform="translate(105,71)"/>
<path d="M0 0 C0.66 0.33 1.32 0.66 2 1 C1.21302675 4.41021743 0.12880057 7.68885166 -1 11 C-2.32 10.34 -3.64 9.68 -5 9 C-4.67 7.68 -4.34 6.36 -4 5 C-2.68 4.67 -1.36 4.34 0 4 C0 2.68 0 1.36 0 0 Z " fill="#C4C1B6" transform="translate(97,33)"/>
<path d="M0 0 C2.475 0.495 2.475 0.495 5 1 C4.67 2.98 4.34 4.96 4 7 C2.68 6.67 1.36 6.34 0 6 C0 4.02 0 2.04 0 0 Z " fill="#E5E5E5" transform="translate(60,170)"/>
<path d="M0 0 C2.125 0.375 2.125 0.375 4 1 C4 2.65 4 4.3 4 6 C2.35 6 0.7 6 -1 6 C-1.625 4.125 -1.625 4.125 -2 2 C-1.34 1.34 -0.68 0.68 0 0 Z " fill="#21525D" transform="translate(89,130)"/>
<path d="M0 0 C2.125 0.375 2.125 0.375 4 1 C4 2.65 4 4.3 4 6 C2.35 6 0.7 6 -1 6 C-1.625 4.125 -1.625 4.125 -2 2 C-1.34 1.34 -0.68 0.68 0 0 Z " fill="#1E4F5A" transform="translate(107,130)"/>
<path d="M0 0 C3.55780196 0.60990891 6.6828589 1.5783681 10 3 C10 3.33 10 3.66 10 4 C8.02 4 6.04 4 4 4 C4 3.34 4 2.68 4 2 C2.68 1.67 1.36 1.34 0 1 C0 0.67 0 0.34 0 0 Z M-3 3 C-0.69 3.33 1.62 3.66 4 4 C4.33 4.99 4.66 5.98 5 7 C-0.75 5.25 -0.75 5.25 -3 3 Z " fill="#CD9D44" transform="translate(90,109)"/>
<path d="M0 0 C0.99 0.33 1.98 0.66 3 1 C2.21625 1.763125 1.4325 2.52625 0.625 3.3125 C-2.99530472 7.56866561 -3.3574223 12.61001987 -4 18 C-4.33 18 -4.66 18 -5 18 C-5.86140345 7.41430867 -5.86140345 7.41430867 -2.5 2.8125 C-1.675 1.884375 -0.85 0.95625 0 0 Z " fill="#D5E9EC" transform="translate(31,63)"/>
<path d="M0 0 C1.32 0 2.64 0 4 0 C4.33 0.99 4.66 1.98 5 3 C6.65 3 8.3 3 10 3 C10 3.66 10 4.32 10 5 C7.36 5.33 4.72 5.66 2 6 C2 5.01 2 4.02 2 3 C1.34 3 0.68 3 0 3 C0 2.01 0 1.02 0 0 Z " fill="#F3D1B9" transform="translate(99,43)"/>
<path d="M0 0 C3.26460973 1.80412643 4.88929795 2.83394693 7 6 C6.01 7.32 5.02 8.64 4 10 C3.67 8.02 3.34 6.04 3 4 C1.35 4 -0.3 4 -2 4 C-2 3.34 -2 2.68 -2 2 C-1.34 2 -0.68 2 0 2 C0 1.34 0 0.68 0 0 Z " fill="#7FC2CE" transform="translate(108,16)"/>
<path d="M0 0 C0.66 0.33 1.32 0.66 2 1 C1.67 2.98 1.34 4.96 1 7 C1.66 7 2.32 7 3 7 C2.67 8.65 2.34 10.3 2 12 C1.34 12 0.68 12 0 12 C0.33 10.68 0.66 9.36 1 8 C0.34 8 -0.32 8 -1 8 C-0.67 6.02 -0.34 4.04 0 2 C-0.66 1.67 -1.32 1.34 -2 1 C-1.34 0.67 -0.68 0.34 0 0 Z " fill="#2C4D47" transform="translate(119,104)"/>
<path d="M0 0 C0 0.66 0 1.32 0 2 C2.475 2.99 2.475 2.99 5 4 C5 4.66 5 5.32 5 6 C6.32 6 7.64 6 9 6 C9 6.66 9 7.32 9 8 C7.58208592 7.54554036 6.16571954 7.08625056 4.75 6.625 C3.96109375 6.36976562 3.1721875 6.11453125 2.359375 5.8515625 C0.13372042 5.04826333 -1.90931672 4.10288338 -4 3 C-4 2.34 -4 1.68 -4 1 C-2 0 -2 0 0 0 Z " fill="#649C56" transform="translate(84,99)"/>
<path d="M0 0 C0.66 0.33 1.32 0.66 2 1 C1.2575 2.0828125 1.2575 2.0828125 0.5 3.1875 C-1.07919285 6.14848659 -1.28178312 7.71253029 -1 11 C-1.99 10.67 -2.98 10.34 -4 10 C-4.73046875 7.93359375 -4.73046875 7.93359375 -5.1875 5.4375 C-5.34605469 4.61121094 -5.50460938 3.78492187 -5.66796875 2.93359375 C-5.83232422 1.97646484 -5.83232422 1.97646484 -6 1 C-5.01 1.495 -5.01 1.495 -4 2 C-4 2.66 -4 3.32 -4 4 C-3.34 4 -2.68 4 -2 4 C-1.34 2.68 -0.68 1.36 0 0 Z " fill="#0A4C3A" transform="translate(155,87)"/>
<path d="M0 0 C0.144375 0.61875 0.28875 1.2375 0.4375 1.875 C0.93152225 4.03258322 0.93152225 4.03258322 2 6 C3.65 6 5.3 6 7 6 C6.34 6.66 5.68 7.32 5 8 C1.375 7.625 1.375 7.625 -2 7 C-2.6875 5.1875 -2.6875 5.1875 -3 3 C-1.5625 1.25 -1.5625 1.25 0 0 Z " fill="#CB9A40" transform="translate(108,78)"/>
<path d="M0 0 C1.4540625 0.0309375 1.4540625 0.0309375 2.9375 0.0625 C2.9375 1.3825 2.9375 2.7025 2.9375 4.0625 C0.6275 4.0625 -1.6825 4.0625 -4.0625 4.0625 C-4.0625 0.08290816 -4.0625 0.08290816 0 0 Z " fill="#89CDD9" transform="translate(47.0625,86.9375)"/>
<path d="M0 0 C2.97 0.495 2.97 0.495 6 1 C6 5 6 5 4.625 6.75 C3 8 3 8 1 8 C1.66 6.02 2.32 4.04 3 2 C2.01 1.67 1.02 1.34 0 1 C0 0.67 0 0.34 0 0 Z " fill="#83C6D4" transform="translate(152,79)"/>
<path d="M0 0 C0.66 0.33 1.32 0.66 2 1 C1.72285156 1.50789063 1.44570312 2.01578125 1.16015625 2.5390625 C-1.0334683 6.7077298 -2.52413155 10.24131553 -3 15 C-4.44564445 12.70397646 -5.01915134 11.36387543 -4.875 8.625 C-3.77406036 5.32218108 -2.02748478 2.8123176 0 0 Z " fill="#255864" transform="translate(138,65)"/>
<path d="M0 0 C1.0625 1.875 1.0625 1.875 2 4 C1.67 4.66 1.34 5.32 1 6 C-0.32 6 -1.64 6 -3 6 C-3 5.34 -3 4.68 -3 4 C-5.64 4 -8.28 4 -11 4 C-11 3.67 -11 3.34 -11 3 C-8.69 3 -6.38 3 -4 3 C-3.67 2.34 -3.34 1.68 -3 1 C-2.34 1 -1.68 1 -1 1 C-0.67 0.67 -0.34 0.34 0 0 Z " fill="#0B4746" transform="translate(160,58)"/>
<path d="M0 0 C0.33 0.66 0.66 1.32 1 2 C1.66 2.33 2.32 2.66 3 3 C-3.625 7 -3.625 7 -7 7 C-5.54744301 3.17053157 -3.57104439 1.87949705 0 0 Z " fill="#7FC1D3" transform="translate(92,15)"/>
<path d="M0 0 C3.32820054 -0.22692276 5.41801336 -0.32162419 8.375 1.3125 C10 3 10 3 10 6 C9.01 6 8.02 6 7 6 C6.67 5.34 6.34 4.68 6 4 C4.67532254 3.3162955 3.34136367 2.65035814 2 2 C1.34 1.34 0.68 0.68 0 0 Z " fill="#202020" transform="translate(44,163)"/>
<path d="M0 0 C1.65 0 3.3 0 5 0 C4.649375 0.61875 4.29875 1.2375 3.9375 1.875 C3.4734375 2.926875 3.4734375 2.926875 3 4 C3.33 4.66 3.66 5.32 4 6 C3.01 6.33 2.02 6.66 1 7 C0.67 6.01 0.34 5.02 0 4 C-0.66 4 -1.32 4 -2 4 C-1.34 2.68 -0.68 1.36 0 0 Z " fill="#8BD3E5" transform="translate(41,62)"/>
<path d="M0 0 C0.66 0 1.32 0 2 0 C2.33 4.29 2.66 8.58 3 13 C2.34 13 1.68 13 1 13 C-1.48887372 8.31506124 -0.85687773 5.0555786 0 0 Z " fill="#C5D9DC" transform="translate(77,28)"/>
<path d="M0 0 C0.99 0.33 1.98 0.66 3 1 C3.33 2.65 3.66 4.3 4 6 C-2.15234375 5.4140625 -2.15234375 5.4140625 -4 5 C-4.33 4.34 -4.66 3.68 -5 3 C-3.35 3 -1.7 3 0 3 C0 2.01 0 1.02 0 0 Z " fill="#55974C" transform="translate(148,91)"/>
<path d="M0 0 C0.33 0 0.66 0 1 0 C1.22786458 2.05078125 1.45572917 4.1015625 1.68359375 6.15234375 C1.81886614 8.01140229 1.81886614 8.01140229 3 9 C2.6875 12.5 2.6875 12.5 2 16 C1.34 16.33 0.68 16.66 0 17 C0 11.39 0 5.78 0 0 Z " fill="#495C51" transform="translate(116,68)"/>
<path d="M0 0 C1.65 0 3.3 0 5 0 C4.67 1.32 4.34 2.64 4 4 C2.35 4.33 0.7 4.66 -1 5 C-0.67 3.35 -0.34 1.7 0 0 Z " fill="#0D484A" transform="translate(152,69)"/>
<path d="M0 0 C0.58394531 0.36222656 1.16789063 0.72445312 1.76953125 1.09765625 C0.72152344 1.60425781 0.72152344 1.60425781 -0.34765625 2.12109375 C-1.25773438 2.56710938 -2.1678125 3.013125 -3.10546875 3.47265625 C-4.46285156 4.13394531 -4.46285156 4.13394531 -5.84765625 4.80859375 C-8.32581347 6.00268324 -8.32581347 6.00268324 -10.23046875 8.09765625 C-10.16796875 5.84765625 -10.16796875 5.84765625 -9.23046875 3.09765625 C-6.34510172 0.5843497 -3.7599872 -1.52111566 0 0 Z " fill="#DEEFF0" transform="translate(146.23046875,59.90234375)"/>
<path d="M0 0 C0.33 0 0.66 0 1 0 C1 1.98 1 3.96 1 6 C0.05125 6.268125 -0.8975 6.53625 -1.875 6.8125 C-5.25267273 7.74986588 -5.25267273 7.74986588 -7 11 C-7 9.02 -7 7.04 -7 5 C-5.02 4.67 -3.04 4.34 -1 4 C-0.67 2.68 -0.34 1.36 0 0 Z " fill="#367D40" transform="translate(107,27)"/>
<path d="M0 0 C1.875 0.9375 1.875 0.9375 3.875 3.9375 C0.575 3.9375 -2.725 3.9375 -6.125 3.9375 C-2.71630435 -0.0798913 -2.71630435 -0.0798913 0 0 Z " fill="#D5E4E1" transform="translate(94.125,20.0625)"/>
<path d="M0 0 C4.0042343 3.49087093 5.62671065 5.64951939 6 11 C5.01 11 4.02 11 3 11 C2.814375 9.88625 2.814375 9.88625 2.625 8.75 C2.0430105 6.18924619 1.19578604 4.31185302 0 2 C0 1.34 0 0.68 0 0 Z " fill="#76BFD1" transform="translate(58,66)"/>
<path d="M0 0 C1.485 0.99 1.485 0.99 3 2 C3 2.66 3 3.32 3 4 C3.94875 3.938125 4.8975 3.87625 5.875 3.8125 C6.90625 3.874375 7.9375 3.93625 9 4 C9.99 5.485 9.99 5.485 11 7 C8.03 6.67 5.06 6.34 2 6 C1.34 4.02 0.68 2.04 0 0 Z " fill="#C28B37" transform="translate(102,60)"/>
<path d="M0 0 C3.87467873 1.25665256 6.10609704 2.31187319 8 6 C8.1875 9.75 8.1875 9.75 8 13 C7.67 13 7.34 13 7 13 C7 11.02 7 9.04 7 7 C6.34 7 5.68 7 5 7 C2.375 4.625 2.375 4.625 0 2 C0 1.34 0 0.68 0 0 Z " fill="#424922" transform="translate(89,63)"/>
<path d="M0 0 C2.875 0.3125 2.875 0.3125 6 1 C8 4 8 4 8 8 C9.32 8.33 10.64 8.66 12 9 C10.35 9 8.7 9 7 9 C6.5875 8.071875 6.175 7.14375 5.75 6.1875 C4.06558214 3.11945319 2.91545917 1.80959535 0 0 Z " fill="#376045" transform="translate(91,43)"/>
<path d="M0 0 C0.33 2.31 0.66 4.62 1 7 C-1.86724686 6.42655063 -2.8614515 6.1385485 -5 4 C-4.67 3.01 -4.34 2.02 -4 1 C-1 0 -1 0 0 0 Z " fill="#6CAC43" transform="translate(89,38)"/>
<path d="M0 0 C2.31 0.66 4.62 1.32 7 2 C7 2.99 7 3.98 7 5 C5.35 5 3.7 5 2 5 C1.34 3.35 0.68 1.7 0 0 Z " fill="#3F7B4E" transform="translate(138,71)"/>
<path d="M0 0 C2.5625 2.25 2.5625 2.25 5 5 C4.8125 7.3125 4.8125 7.3125 4 9 C3.38125 8.195625 2.7625 7.39125 2.125 6.5625 C0.25835959 3.96125481 0.25835959 3.96125481 -2 3 C-2 2.34 -2 1.68 -2 1 C-1.34 0.67 -0.68 0.34 0 0 Z " fill="#489244" transform="translate(164,68)"/>
<path d="M0 0 C3.3 0 6.6 0 10 0 C10 0.99 10 1.98 10 3 C6.6875 3.1875 6.6875 3.1875 3 3 C2.01 2.01 1.02 1.02 0 0 Z " fill="#1D1D1D" transform="translate(86,163)"/>
<path d="M0 0 C1.5 1.375 1.5 1.375 3 3 C3 3.66 3 4.32 3 5 C2.34 5 1.68 5 1 5 C1 5.66 1 6.32 1 7 C0.01 7.33 -0.98 7.66 -2 8 C-2.6875 6.25 -2.6875 6.25 -3 4 C-1.5625 1.75 -1.5625 1.75 0 0 Z " fill="#083E48" transform="translate(55,71)"/>
<path d="M0 0 C0.721875 0.103125 1.44375 0.20625 2.1875 0.3125 C2.1875 0.9725 2.1875 1.6325 2.1875 2.3125 C-4.4375 5.3125 -4.4375 5.3125 -7.8125 5.3125 C-3.50480769 0.38942308 -3.50480769 0.38942308 0 0 Z " fill="#2F5D57" transform="translate(86.8125,61.6875)"/>
<path d="M0 0 C0.66 0 1.32 0 2 0 C1.8125 1.8125 1.8125 1.8125 1 4 C-3.17857143 7 -3.17857143 7 -6 7 C-6 6.01 -6 5.02 -6 4 C-4.7934375 3.566875 -4.7934375 3.566875 -3.5625 3.125 C-0.8673532 2.26737432 -0.8673532 2.26737432 0 0 Z " fill="#2C4B53" transform="translate(111,46)"/>
<path d="M0 0 C-0.33 0.99 -0.66 1.98 -1 3 C-2.98248715 3.71706982 -4.98415349 4.38290413 -7 5 C-7.66 5.66 -8.32 6.32 -9 7 C-9 6.34 -9 5.68 -9 5 C-9.66 4.67 -10.32 4.34 -11 4 C-9.5437455 3.32880451 -8.08492133 2.66318193 -6.625 2 C-5.81289062 1.62875 -5.00078125 1.2575 -4.1640625 0.875 C-2 0 -2 0 0 0 Z " fill="#EBF6F5" transform="translate(112,121)"/>
<path d="M0 0 C2.475 0.495 2.475 0.495 5 1 C4.34 2.98 3.68 4.96 3 7 C0 3.375 0 3.375 0 0 Z " fill="#61A351" transform="translate(135,82)"/>
<path d="M0 0 C0.33 0 0.66 0 1 0 C1 1.98 1 3.96 1 6 C2.98 5.67 4.96 5.34 7 5 C3.25 8 3.25 8 1 8 C0.67 9.32 0.34 10.64 0 12 C-1.16063604 7.74433453 -0.76173392 4.3164922 0 0 Z " fill="#0B4E2D" transform="translate(108,26)"/>
<path d="M0 0 C2.31 0 4.62 0 7 0 C7.33 0.99 7.66 1.98 8 3 C5.03 3 2.06 3 -1 3 C-0.67 2.01 -0.34 1.02 0 0 Z " fill="#191919" transform="translate(105,168)"/>
<path d="M0 0 C2.97 0.99 5.94 1.98 9 3 C9 3.66 9 4.32 9 5 C5.625 4.75 5.625 4.75 2 4 C1.34 2.68 0.68 1.36 0 0 Z " fill="#EFA124" transform="translate(85,108)"/>
<path d="M0 0 C1.65 0 3.3 0 5 0 C5.66 1.65 6.32 3.3 7 5 C4.69 4.34 2.38 3.68 0 3 C0 2.01 0 1.02 0 0 Z " fill="#D99C34" transform="translate(80,107)"/>
<path d="M0 0 C2.97 0.495 2.97 0.495 6 1 C6.33 2.32 6.66 3.64 7 5 C6.01 5 5.02 5 4 5 C4 4.34 4 3.68 4 3 C3.01 2.67 2.02 2.34 1 2 C0.67 1.34 0.34 0.68 0 0 Z " fill="#373737" transform="translate(141,167)"/>
<path d="M0 0 C0.99 0 1.98 0 3 0 C3.33 2.31 3.66 4.62 4 7 C3.01 7 2.02 7 1 7 C0.67 4.69 0.34 2.38 0 0 Z " fill="#446469" transform="translate(82,129)"/>
<path d="M0 0 C0.2475 0.5775 0.495 1.155 0.75 1.75 C2.16683317 4.3002997 3.87627537 6.01785701 6 8 C5.67 8.66 5.34 9.32 5 10 C1.125 8.25 1.125 8.25 0 6 C-0.039992 4.00039988 -0.04346799 1.99952758 0 0 Z " fill="#549067" transform="translate(101,89)"/>
<path d="M0 0 C3.67420866 0.30618405 4.78135513 0.75771784 7.3125 3.5625 C8.1478125 4.7690625 8.1478125 4.7690625 9 6 C4.58763974 6 3.21615077 3.9302707 0 1 C0 0.67 0 0.34 0 0 Z " fill="#12544E" transform="translate(141,82)"/>
<path d="M0 0 C2.0625 1.6875 2.0625 1.6875 4 4 C3.75 6.75 3.75 6.75 3 9 C2.34 9 1.68 9 1 9 C-1.09230769 4.56923077 -1.09230769 4.56923077 -0.625 1.6875 C-0.41875 1.130625 -0.2125 0.57375 0 0 Z " fill="#DFCCBA" transform="translate(97,38)"/>
<path d="M0 0 C2.31 0 4.62 0 7 0 C7 0.99 7 1.98 7 3 C5.02 3 3.04 3 1 3 C0.67 2.01 0.34 1.02 0 0 Z " fill="#181818" transform="translate(89,176)"/>
<path d="M0 0 C0.99 0 1.98 0 3 0 C3.33 1.98 3.66 3.96 4 6 C3.01 6 2.02 6 1 6 C0.67 4.02 0.34 2.04 0 0 Z " fill="#121212" transform="translate(79,173)"/>
<path d="M0 0 C2.475 0.495 2.475 0.495 5 1 C5 1.99 5 2.98 5 4 C3.35 4 1.7 4 0 4 C0 2.68 0 1.36 0 0 Z " fill="#F2F2F2" transform="translate(74,166)"/>
<path d="M0 0 C1.98 0.66 3.96 1.32 6 2 C6 3.32 6 4.64 6 6 C5.01 5.67 4.02 5.34 3 5 C3 4.34 3 3.68 3 3 C2.01 2.67 1.02 2.34 0 2 C0 1.34 0 0.68 0 0 Z " fill="#245851" transform="translate(114,97)"/>
<path d="M0 0 C1.32 0.66 2.64 1.32 4 2 C3.67 2.99 3.34 3.98 3 5 C0.36 4.67 -2.28 4.34 -5 4 C-1.25 2.875 -1.25 2.875 1 4 C0.67 2.68 0.34 1.36 0 0 Z " fill="#64A259" transform="translate(85,79)"/>
<path d="M0 0 C6.52307692 0.61538462 6.52307692 0.61538462 8.9375 2.5625 C9.288125 3.036875 9.63875 3.51125 10 4 C9.67 4.66 9.34 5.32 9 6 C6.03 4.35 3.06 2.7 0 1 C0 0.67 0 0.34 0 0 Z " fill="#145A47" transform="translate(52,81)"/>
<path d="M0 0 C2.475 0.99 2.475 0.99 5 2 C5 2.99 5 3.98 5 5 C3.35 5 1.7 5 0 5 C0 3.35 0 1.7 0 0 Z " fill="#0E4552" transform="translate(150,79)"/>
<path d="M0 0 C1.3609623 2.7219246 0.70366248 4.1831957 0.0625 7.125 C-0.13214844 8.03507812 -0.32679687 8.94515625 -0.52734375 9.8828125 C-0.68332031 10.58148438 -0.83929688 11.28015625 -1 12 C-1.66 12 -2.32 12 -3 12 C-2.69230293 10.18667846 -2.37870936 8.37435655 -2.0625 6.5625 C-1.80146484 5.04849609 -1.80146484 5.04849609 -1.53515625 3.50390625 C-1 1 -1 1 0 0 Z " fill="#A58149" transform="translate(98,69)"/>
<path d="M0 0 C0.99 0.33 1.98 0.66 3 1 C3.66 0.67 4.32 0.34 5 0 C5.66 0.66 6.32 1.32 7 2 C5 4 5 4 2.375 4.125 C1.59125 4.08375 0.8075 4.0425 0 4 C0 2.68 0 1.36 0 0 Z " fill="#78B9C7" transform="translate(47,75)"/>
<path d="M0 0 C0.66 0 1.32 0 2 0 C1.42415568 2.38564077 0.77772405 4.66682784 0 7 C-0.99 7 -1.98 7 -3 7 C-1.125 1.125 -1.125 1.125 0 0 Z " fill="#C2C8C5" transform="translate(54,50)"/>
<path d="M0 0 C0.66 0 1.32 0 2 0 C2 1.65 2 3.3 2 5 C0.02 5.33 -1.96 5.66 -4 6 C-4 5.34 -4 4.68 -4 4 C-3.01 4 -2.02 4 -1 4 C-0.67 2.68 -0.34 1.36 0 0 Z " fill="#CEE3E5" transform="translate(93,88)"/>
<path d="M0 0 C2.125 0.9375 2.125 0.9375 4 2 C4 2.99 4 3.98 4 5 C2.02 4.34 0.04 3.68 -2 3 C-2 2.34 -2 1.68 -2 1 C-1.34 0.67 -0.68 0.34 0 0 Z " fill="#134E1E" transform="translate(140,86)"/>
<path d="M0 0 C0.66 0 1.32 0 2 0 C2.66 1.65 3.32 3.3 4 5 C1 5 1 5 -1 4 C-0.67 2.68 -0.34 1.36 0 0 Z " fill="#34545A" transform="translate(91,80)"/>
<path d="M0 0 C1.98 0.495 1.98 0.495 4 1 C4 2.32 4 3.64 4 5 C2.68 5 1.36 5 0 5 C-0.33 4.01 -0.66 3.02 -1 2 C-0.67 1.34 -0.34 0.68 0 0 Z " fill="#7EC3D2" transform="translate(32,76)"/>
<path d="M0 0 C0.99 0.99 1.98 1.98 3 3 C2.01 4.485 2.01 4.485 1 6 C0.01 5.67 -0.98 5.34 -2 5 C-2 3.68 -2 2.36 -2 1 C-1.34 0.67 -0.68 0.34 0 0 Z " fill="#75A940" transform="translate(88,67)"/>
<path d="M0 0 C2.97 0.33 5.94 0.66 9 1 C7.515 2.485 7.515 2.485 6 4 C4.02 3.34 2.04 2.68 0 2 C0 1.34 0 0.68 0 0 Z " fill="#32655C" transform="translate(88,49)"/>
<path d="M0 0 C1.98 0.99 3.96 1.98 6 3 C6 3.99 6 4.98 6 6 C3.5625 5.25 3.5625 5.25 1 4 C0.1875 1.875 0.1875 1.875 0 0 Z " fill="#4E9A42" transform="translate(90,43)"/>
<path d="M0 0 C0 1.65 0 3.3 0 5 C-1.65 5 -3.3 5 -5 5 C-2.74193548 0 -2.74193548 0 0 0 Z " fill="#8BD3E2" transform="translate(103,25)"/>
<path d="M0 0 C0.99 0 1.98 0 3 0 C2.67 1.32 2.34 2.64 2 4 C0.68 4.33 -0.64 4.66 -2 5 C-1.34 3.35 -0.68 1.7 0 0 Z " fill="#101010" transform="translate(51,173)"/>
<path d="M0 0 C1.2065625 0.0309375 1.2065625 0.0309375 2.4375 0.0625 C-0.25091859 2.31495881 -2.20891875 3.94463958 -5.5625 5.0625 C-3.15007962 0.07683121 -3.15007962 0.07683121 0 0 Z " fill="#0D0D0D" transform="translate(45.5625,163.9375)"/>
<path d="M0 0 C2.31 0 4.62 0 7 0 C7.33 0.66 7.66 1.32 8 2 C5.69 2.33 3.38 2.66 1 3 C0.67 2.01 0.34 1.02 0 0 Z " fill="#ECA128" transform="translate(94,113)"/>
<path d="M0 0 C1.65 0.33 3.3 0.66 5 1 C5 1.99 5 2.98 5 4 C2.03 3.505 2.03 3.505 -1 3 C-0.67 2.01 -0.34 1.02 0 0 Z " fill="#6DAB3D" transform="translate(84,99)"/>
<path d="M0 0 C-0.33 0.99 -0.66 1.98 -1 3 C-4.0625 4.1875 -4.0625 4.1875 -7 5 C-6 2 -6 2 -4.0625 0.8125 C-2 0 -2 0 0 0 Z " fill="#479247" transform="translate(37,82)"/>
<path d="M0 0 C0.33 0 0.66 0 1 0 C1.33 1.98 1.66 3.96 2 6 C0.35 6.33 -1.3 6.66 -3 7 C-2.34 6.67 -1.68 6.34 -1 6 C-1.33 4.68 -1.66 3.36 -2 2 C-1.34 2 -0.68 2 0 2 C0 1.34 0 0.68 0 0 Z " fill="#87CCD8" transform="translate(41,72)"/>
<path d="M0 0 C1.98 0 3.96 0 6 0 C5.67 1.32 5.34 2.64 5 4 C3.68 4 2.36 4 1 4 C0.67 2.68 0.34 1.36 0 0 Z " fill="#F7971F" transform="translate(105,66)"/>
<path d="M0 0 C4.75 0.75 4.75 0.75 7 3 C4.125 3.625 4.125 3.625 1 4 C0.34 3.34 -0.32 2.68 -1 2 C-0.67 1.34 -0.34 0.68 0 0 Z " fill="#CDC0B0" transform="translate(103,43)"/>
<path d="M0 0 C0.66 0 1.32 0 2 0 C0.125 4.75 0.125 4.75 -1 7 C-1.99 6.67 -2.98 6.34 -4 6 C-3.67 5.34 -3.34 4.68 -3 4 C-2.34 4 -1.68 4 -1 4 C-0.67 2.68 -0.34 1.36 0 0 Z " fill="#62A257" transform="translate(115,39)"/>
<path d="M0 0 C1.98 0 3.96 0 6 0 C6.33 1.65 6.66 3.3 7 5 C6.34 5 5.68 5 5 5 C5 3.68 5 2.36 5 1 C3.02 1.66 1.04 2.32 -1 3 C-0.67 2.01 -0.34 1.02 0 0 Z " fill="#5EA043" transform="translate(102,34)"/>
</svg>
